<svg width="16" height="17" viewBox="0 0 16 17" fill="none" xmlns="http://www.w3.org/2000/svg">
<path fill-rule="evenodd" clip-rule="evenodd" d="M4.56244 5.73833C4.38969 5.73833 4.22401 5.80695 4.10185 5.92911C3.9797 6.05126 3.91107 6.21694 3.91107 6.38969C3.91107 6.56245 3.9797 6.72813 4.10185 6.85028C4.22401 6.97244 4.38969 7.04106 4.56244 7.04106H11.0761C11.2489 7.04106 11.4145 6.97244 11.5367 6.85028C11.6589 6.72813 11.7275 6.56245 11.7275 6.38969C11.7275 6.21694 11.6589 6.05126 11.5367 5.92911C11.4145 5.80695 11.2489 5.73833 11.0761 5.73833H4.56244ZM4.56244 7.69243C4.38969 7.69243 4.22401 7.76105 4.10185 7.88321C3.9797 8.00536 3.91107 8.17104 3.91107 8.3438C3.91107 8.51655 3.9797 8.68223 4.10185 8.80438C4.22401 8.92654 4.38969 8.99516 4.56244 8.99516H8.47064C8.6434 8.99516 8.80907 8.92654 8.93123 8.80438C9.05338 8.68223 9.12201 8.51655 9.12201 8.3438C9.12201 8.17104 9.05338 8.00536 8.93123 7.88321C8.80907 7.76105 8.6434 7.69243 8.47064 7.69243H4.56244ZM4.51945 1.83012H11.1191C11.6962 1.83012 12.1939 1.83012 12.5925 1.88354C13.0191 1.94086 13.4288 2.07048 13.7604 2.40268C14.0926 2.73487 14.2222 3.14393 14.2795 3.57058C14.3329 3.96921 14.3329 4.46686 14.3329 5.04397V9.03815C14.3329 9.61526 14.3329 10.1129 14.2795 10.5115C14.2222 10.9382 14.0926 11.3479 13.7604 11.6794C13.4282 12.0116 13.0191 12.1413 12.5925 12.1986C12.1939 12.252 11.6962 12.252 11.1191 12.252H9.80855L8.46022 14.4093C8.39232 14.5181 8.29786 14.6078 8.18573 14.67C8.0736 14.7322 7.94749 14.7648 7.81927 14.7648C7.69106 14.7648 7.56495 14.7322 7.45282 14.67C7.34069 14.6078 7.24623 14.5181 7.17833 14.4093L5.83 12.252H4.51945C3.94234 12.252 3.44469 12.252 3.04606 12.1986C2.61941 12.1413 2.2097 12.0116 1.87815 11.6794C1.54596 11.3472 1.41634 10.9382 1.35902 10.5115C1.3056 10.1129 1.3056 9.61526 1.3056 9.03815V5.04397C1.3056 4.46686 1.3056 3.96921 1.35902 3.57058C1.41634 3.14393 1.54596 2.73422 1.87815 2.40268C2.21035 2.07048 2.61941 1.94086 3.04606 1.88354C3.44469 1.83012 3.94234 1.83012 4.51945 1.83012Z" fill="white" fill-opacity="0.5"/>
</svg>
