<svg width="17" height="17" viewBox="0 0 17 17" fill="none" xmlns="http://www.w3.org/2000/svg">
<path fill-rule="evenodd" clip-rule="evenodd" d="M5.21446 3.88173C5.78115 3.0369 6.76015 2.14648 8.30845 2.14648C9.85675 2.14648 10.8358 3.0369 11.4024 3.88173C11.7767 4.44915 12.049 5.07762 12.2069 5.73877L13.2067 10.8937C13.2616 11.1766 13.2532 11.4681 13.1822 11.7473C13.1111 12.0265 12.9792 12.2866 12.7959 12.5089C12.6126 12.7312 12.3824 12.9102 12.1218 13.0331C11.8612 13.156 11.5766 13.2197 11.2885 13.2197H5.32845C5.04032 13.2197 4.75575 13.156 4.49514 13.0331C4.23452 12.9102 4.00431 12.7312 3.82099 12.5089C3.63766 12.2866 3.50577 12.0265 3.43475 11.7473C3.36372 11.4681 3.35533 11.1766 3.41017 10.8937L4.41002 5.73877C4.56785 5.07739 4.8401 4.44935 5.21446 3.88173Z" fill="black"/>
<path fill-rule="evenodd" clip-rule="evenodd" d="M6.03799 13.8711C6.20214 14.1838 6.45357 14.5114 6.83462 14.7615C7.23195 15.0221 7.7309 15.1738 8.33927 15.1738C8.947 15.1738 9.4466 15.0221 9.84393 14.7615C10.225 14.5114 10.4758 14.1844 10.6406 13.8711H6.03799Z" fill="black"/>
<path fill-rule="evenodd" clip-rule="evenodd" d="M11.7564 2.33732C11.6343 2.45947 11.5657 2.62512 11.5657 2.79783C11.5657 2.97055 11.6343 3.1362 11.7564 3.25835C12.2945 3.79638 12.5785 4.32399 12.8879 5.56159C12.9308 5.72808 13.0379 5.87082 13.1857 5.95869C13.3335 6.04656 13.51 6.07242 13.6768 6.03063C13.8436 5.98885 13.9871 5.88281 14.0761 5.73564C14.165 5.58847 14.1921 5.41211 14.1515 5.24502C13.8095 3.87715 13.4415 3.10202 12.6775 2.33732C12.5553 2.21521 12.3897 2.14661 12.217 2.14661C12.0442 2.14661 11.8786 2.21521 11.7564 2.33732ZM4.86106 2.33732C4.98317 2.45947 5.05177 2.62512 5.05177 2.79783C5.05177 2.97055 4.98317 3.1362 4.86106 3.25835C4.32303 3.79638 4.03904 4.32399 3.72964 5.56159C3.68666 5.72808 3.5796 5.87082 3.4318 5.95869C3.284 6.04656 3.10745 6.07242 2.94065 6.03063C2.77386 5.98885 2.63035 5.88281 2.54143 5.73564C2.45251 5.58847 2.42539 5.41211 2.46598 5.24502C2.80795 3.87715 3.17597 3.10202 3.94003 2.33732C4.06218 2.21521 4.22782 2.14661 4.40054 2.14661C4.57326 2.14661 4.73891 2.21521 4.86106 2.33732Z" fill="black"/>
<circle cx="3.74899" cy="9.96289" r="2.60547" fill="#FF0000"/>
</svg>
