<svg width="16" height="16" viewBox="0 0 16 16" fill="none" xmlns="http://www.w3.org/2000/svg">
<path fill-rule="evenodd" clip-rule="evenodd" d="M14.333 8.624V10.0127C14.333 10.5898 14.333 11.0875 14.2796 11.4861C14.2223 11.9128 14.0927 12.3225 13.7605 12.654C13.4283 12.9862 13.0192 13.1158 12.5926 13.1732C12.1939 13.2266 11.6963 13.2266 11.1192 13.2266H7.12498C6.54787 13.2266 6.05022 13.2266 5.65159 13.1732C5.22494 13.1158 4.81523 12.9862 4.48368 12.654C4.15149 12.3218 4.02187 11.9128 3.96454 11.4861C3.91113 11.0875 3.91113 10.5898 3.91113 10.0127V8.624C3.91113 8.04689 3.91113 7.54925 3.96454 7.15061C4.02187 6.72396 4.15149 6.31425 4.48368 5.98271C4.81588 5.65051 5.22494 5.52089 5.65159 5.46357C6.05022 5.41016 6.54787 5.41016 7.12498 5.41016H11.1192C11.6963 5.41016 12.1939 5.41016 12.5926 5.46357C13.0192 5.52089 13.4289 5.65051 13.7605 5.98271C14.0927 6.31491 14.2223 6.72396 14.2796 7.15061C14.333 7.54925 14.333 8.04689 14.333 8.624ZM7.16797 9.31836C7.16797 9.06174 7.21851 8.80764 7.31672 8.57056C7.41492 8.33347 7.55886 8.11806 7.74031 7.9366C7.92177 7.75515 8.13719 7.61121 8.37427 7.513C8.61135 7.4148 8.86545 7.36426 9.12207 7.36426C9.37869 7.36426 9.63279 7.4148 9.86987 7.513C10.107 7.61121 10.3224 7.75515 10.5038 7.9366C10.6853 8.11806 10.8292 8.33347 10.9274 8.57056C11.0256 8.80764 11.0762 9.06174 11.0762 9.31836C11.0762 9.83662 10.8703 10.3337 10.5038 10.7001C10.1374 11.0666 9.64033 11.2725 9.12207 11.2725C8.60381 11.2725 8.10678 11.0666 7.74031 10.7001C7.37385 10.3337 7.16797 9.83662 7.16797 9.31836Z" fill="white" fill-opacity="0.5"/>
<path fill-rule="evenodd" clip-rule="evenodd" d="M11.7256 4.76139C11.5386 4.75879 11.3478 4.75879 11.1537 4.75879H7.08979C6.54068 4.75879 6.00656 4.75879 5.56428 4.81806C5.06534 4.88515 4.49604 5.04865 4.0225 5.52154C3.54895 5.99508 3.38546 6.56503 3.31902 7.06398C3.25975 7.50626 3.25975 8.03973 3.25975 8.58948V10.0472C3.25975 10.2381 3.25975 10.427 3.26235 10.6107C3.2215 10.6089 3.18068 10.6065 3.1399 10.6035C2.89694 10.584 2.65463 10.5429 2.41883 10.4309C2.01436 10.238 1.6885 9.91186 1.49584 9.50726C1.38381 9.27276 1.34212 9.0298 1.32323 8.78684C1.30742 8.50923 1.30155 8.23113 1.30565 7.95309V6.01853C1.30565 5.44142 1.30565 4.94378 1.35906 4.54514C1.41638 4.1185 1.546 3.70879 1.8782 3.37724C2.21039 3.04504 2.61945 2.91542 3.0461 2.8581C3.44473 2.80469 3.94238 2.80469 4.51949 2.80469H9.47314C9.74802 2.80469 9.98446 2.80469 10.1955 2.85028C10.559 2.93075 10.892 3.11341 11.1552 3.37674C11.4185 3.64008 11.601 3.97314 11.6813 4.3367C11.7106 4.46698 11.721 4.60767 11.7256 4.76139Z" fill="white" fill-opacity="0.5"/>
</svg>
