<svg width="61" height="70" viewBox="0 0 61 70" fill="none" xmlns="http://www.w3.org/2000/svg">
<path fill-rule="evenodd" clip-rule="evenodd" d="M13.0897 24.8676H7.2953C6.49523 24.8676 5.84669 24.2166 5.84669 23.4135V4.21888C5.84669 3.4191 6.49855 3.0556 7.2953 3.0556H18.884V1.38339C18.884 0.583608 19.8257 0.147325 20.6224 0.147325H53.6506C53.6779 0.144264 53.7053 0.142037 53.7328 0.140646C54.452 0.105158 55.0637 0.66154 55.0992 1.38339V17.8878C55.0992 18.7602 54.4473 19.0511 53.6506 19.0511H51.4777V25.3039C51.4346 25.9297 50.9967 26.4573 50.3912 26.6126H49.7394C49.3231 26.5994 48.9303 26.4156 48.6529 26.1037L41.9893 19.0511H34.8188V23.4135C34.8218 23.4409 34.824 23.4685 34.8254 23.496C34.8608 24.218 34.3065 24.832 33.5874 24.8676H20.6224L15.2626 28.6483C15.0298 28.8191 14.7535 28.92 14.4658 28.9392C14.2316 28.9343 14.0043 28.8583 13.814 28.7211C13.3617 28.477 13.0825 28.0004 13.0897 27.485V24.8676ZM52.2021 3.05574H21.7813V16.1428H42.5688C43.0355 16.1825 43.4723 16.3889 43.8002 16.7245L48.5807 21.6686V17.8879C48.5807 17.0882 48.9428 16.143 49.7395 16.143H52.2021V3.05574ZM8.74391 5.96401H18.8842V17.8879C18.8842 18.7604 19.8258 19.0512 20.6225 19.0512H31.9217V21.9595H20.1879C19.8964 21.9587 19.6141 22.0618 19.3912 22.2503L15.987 24.6497V23.4136C15.9483 22.599 15.2785 21.9585 14.466 21.9595H8.74391V5.96401ZM48.146 29.8844C43.5057 29.8844 39.7441 33.6603 39.7441 38.3183C39.7441 42.9763 43.5057 46.7523 48.146 46.7523C52.7863 46.7523 56.5479 42.9763 56.5479 38.3183C56.5479 33.6603 52.7863 29.8844 48.146 29.8844ZM48.146 43.8442C45.1059 43.8442 42.6413 41.3702 42.6413 38.3185C42.6413 35.2667 45.1059 32.7928 48.146 32.7928C51.1862 32.7928 53.6507 35.2667 53.6507 38.3185C53.6507 41.3702 51.1862 43.8442 48.146 43.8442ZM30.4729 50.824C25.8326 50.824 22.071 47.048 22.071 42.39C22.071 37.732 25.8326 33.9561 30.4729 33.9561C35.1132 33.9561 38.8749 37.732 38.8749 42.39C38.8749 47.048 35.1132 50.824 30.4729 50.824ZM30.4729 47.9157C33.5131 47.9157 35.9776 45.4418 35.9776 42.39C35.9776 39.3381 33.5131 36.8643 30.4729 36.8643C27.4328 36.8643 24.9682 39.3383 24.9682 42.39C24.9682 45.4418 27.4328 47.9157 30.4729 47.9157ZM49.3049 48.1338C49.3534 48.1338 49.4021 48.1342 49.4506 48.1348C55.8505 48.2151 60.9738 53.488 60.8938 59.9122V64.5654C60.8938 65.3652 60.3868 66.3104 59.59 66.3104H43.5104V68.7097C43.5104 69.5095 42.7862 69.9458 41.9895 69.9458H18.9566C18.1598 69.9458 17.4356 69.5095 17.4356 68.7097V66.3104H1.35598C0.559233 66.3104 0.05224 65.3652 0.05224 64.5654V59.9122C0.0515468 59.8634 0.0512695 59.8147 0.0512695 59.7659C0.0516854 53.3412 5.24057 48.1332 11.641 48.1338H14.0312C18.0902 48.1861 21.8378 50.3279 23.9543 53.8049C25.5902 52.8903 27.4425 52.438 29.3141 52.4962H31.6318C33.5034 52.438 35.3557 52.8903 36.9916 53.8049C39.1082 50.3279 42.8557 48.1861 46.9147 48.1338H49.3049ZM2.94946 63.4021H17.6528C17.8692 60.3315 19.3044 57.4763 21.6365 55.477C20.0454 52.7685 17.1634 51.0878 14.0314 51.0419H11.6411C11.5923 51.0419 11.5437 51.0423 11.495 51.0432C6.69542 51.1235 2.86947 55.0943 2.94946 59.9122V63.4021ZM20.3327 67.0375V64.711C20.3302 59.6827 24.3072 55.5617 29.3141 55.4046H31.6318C36.6387 55.5617 40.6156 59.6827 40.6132 64.711V67.0375H20.3327ZM57.9966 63.4023V59.9123L57.9972 59.8646C57.9976 59.8316 57.9978 59.7986 57.9978 59.7658C57.9971 54.9472 54.1052 51.0415 49.3049 51.0422H46.9147C43.7826 51.0881 40.9006 52.7687 39.3095 55.4772C41.6416 57.4763 43.0768 60.3315 43.2932 63.4023H57.9966ZM21.2743 38.3183C21.2743 42.9763 17.5127 46.7523 12.8724 46.7523C8.2322 46.7523 4.47044 42.9763 4.47044 38.3183C4.47044 33.6603 8.23206 29.8844 12.8724 29.8844C17.5127 29.8844 21.2743 33.6603 21.2743 38.3183ZM18.3771 38.3183C18.3771 35.2666 15.9125 32.7927 12.8724 32.7927C9.8322 32.7927 7.36767 35.2666 7.36767 38.3183C7.36767 41.3701 9.8322 43.844 12.8724 43.844C15.9125 43.844 18.3771 41.3701 18.3771 38.3183Z" fill="#80C390"/>
</svg>
