<svg width="28" height="36" viewBox="0 0 28 36" fill="none" xmlns="http://www.w3.org/2000/svg">
<path fill-rule="evenodd" clip-rule="evenodd" d="M19.9267 0.369267L27.72 8.86152C27.8783 9.02504 27.9769 9.23627 28 9.46154V32.0769C27.9498 34.2406 26.1748 35.9757 23.9866 36H4.01336C1.82513 35.9757 0.0501994 34.2406 0 32.0769V3.92306C0.0501994 1.75941 1.82522 0.0242939 4.01336 0H19.2266C19.5058 0.00724399 19.7651 0.144085 19.9267 0.369267ZM24.92 8.7693L20.0666 3.55389V8.12317C20.0666 8.40003 20.5333 8.7693 20.86 8.7693H24.92ZM26.1333 32.0769C26.0843 33.2211 25.1444 34.1305 23.9866 34.1538H4.01336C2.85565 34.1305 1.9157 33.2211 1.86667 32.0769V3.92306C1.9157 2.77887 2.85565 1.86948 4.01336 1.84616H18.2V8.12308C18.2 9.41543 19.5067 10.6154 20.86 10.6154H26.1333V32.0769ZM19.88 19.7538L16.38 19.2461L14.84 16.1538C14.7515 15.8947 14.5459 15.6914 14.2839 15.6038C13.8199 15.4488 13.3168 15.695 13.16 16.1538L11.62 19.2461L8.11997 19.7538C7.76116 19.7985 7.46568 20.0542 7.37332 20.4C7.23997 20.7396 7.33286 21.1254 7.60664 21.3692L10.1266 23.723L9.51993 27.1846C9.47312 27.5357 9.61461 27.8854 9.8933 28.1077C10.1848 28.3053 10.5641 28.3232 10.8733 28.1538L13.9999 26.5384L17.1266 28.1538C17.2533 28.2274 17.4002 28.2597 17.5466 28.2461L18.1065 28.1077C18.3852 27.8854 18.5266 27.5357 18.4799 27.1846L17.8732 23.723L20.3932 21.3692C20.667 21.1254 20.7599 20.7396 20.6265 20.4C20.5343 20.0542 20.2388 19.7985 19.88 19.7538ZM16.1933 22.7538C15.9855 22.9605 15.8827 23.2485 15.9133 23.5385L16.2867 25.6616L14.42 24.6924C14.2974 24.6053 14.151 24.5571 14 24.554C13.849 24.5571 13.7026 24.6054 13.58 24.6924L11.7133 25.6616L12.0867 23.5385C12.1174 23.2486 12.0145 22.9605 11.8067 22.7538L10.2667 21.323L12.3666 21C12.6671 20.9478 12.926 20.76 13.0667 20.4923L14 18.6461L14.9333 20.4923C15.074 20.76 15.3328 20.9478 15.6334 21L17.7333 21.323L16.1933 22.7538Z" fill="white"/>
</svg>
