<svg width="62" height="70" viewBox="0 0 62 70" fill="none" xmlns="http://www.w3.org/2000/svg">
<path fill-rule="evenodd" clip-rule="evenodd" d="M9.03484 0H52.4652C57.6167 0 61.9932 3.87041 61.9932 9.0108V51.9784C61.902 55.5767 58.9388 58.4492 55.3221 58.4492H52.7843V68.3974C52.7084 68.9568 52.3437 69.4406 51.827 69.6674C51.6598 69.8337 51.4167 69.9244 51.1888 69.9093C50.8241 69.8942 50.4745 69.7732 50.1554 69.5918L43.8035 64.8596L37.4515 69.5918C36.9956 69.9093 36.3878 69.9546 35.8711 69.743C35.3241 69.5011 34.9594 68.987 34.9138 68.3974V58.4492H19.0339H18.9579C15.4628 58.3736 12.6819 55.4708 12.7731 51.9784V38.7041H6.57307C3.09317 38.7041 0.0691528 36.1793 0.0691528 32.7019V7.42333V7.34773C0.145133 3.06911 3.07798 0 9.03484 0ZM12.7579 35.5443V7.42333C12.8491 5.18575 11.1167 3.28078 8.86768 3.15983H8.00151C5.41817 3.20518 3.33631 4.85313 3.24513 7.42333V32.7019C3.24513 34.4406 4.82553 35.5443 6.57307 35.5443H12.7579ZM49.6843 65.162L44.928 61.5335C44.3201 61.1404 43.5451 61.1404 42.9373 61.5335L38.1809 65.162L38.029 51.2527C39.8373 52.2203 41.8584 52.7495 43.9098 52.7495C45.9613 52.7495 47.9824 52.2354 49.7907 51.2527L49.6843 65.162ZM43.8794 49.6048C43.9402 49.6048 43.9858 49.6048 44.0314 49.5896C49.1677 49.5594 53.2858 45.3866 53.2402 40.2765V40.1253C53.1946 34.9395 48.9245 30.7667 43.7123 30.8121C38.5 30.8575 34.3059 35.1058 34.3515 40.2916C34.3971 45.4773 38.6672 49.6501 43.8794 49.6048ZM55.4893 55.2894H52.9515V48.9698C57.7079 44.0108 57.5255 36.1641 52.5412 31.432C47.5569 26.6998 39.6701 26.8812 34.9138 31.8402C30.3397 36.6026 30.3093 44.0864 34.8378 48.8942V55.2894H19.0339C17.2863 55.2441 15.8883 53.8078 15.9339 52.054V51.9633V7.42333C15.9339 5.68467 15.3716 3.946 14.4294 3.15983H52.4652C55.8843 3.15983 58.8172 5.60907 58.8172 9.0108V51.9784C58.7412 53.7775 57.2824 55.2138 55.4893 55.2894ZM38.4089 12.8056V12.6393C38.3785 11.8078 37.6643 11.1728 36.8285 11.2181H22.9393H22.7721C21.9363 11.2484 21.2981 11.959 21.3437 12.7905V12.9568C21.3741 13.7883 22.0883 14.4233 22.9241 14.378H36.8133H36.9804C37.8162 14.3477 38.4544 13.6371 38.4089 12.8056ZM52.7084 20.7127V20.5464C52.678 19.7149 51.9638 19.0799 51.128 19.1253H22.9393H22.7721C21.9363 19.1555 21.2981 19.8661 21.3437 20.6976V20.8639C21.3741 21.6955 22.0883 22.3305 22.9241 22.2851H51.1128H51.2799C52.1157 22.2549 52.754 21.5443 52.7084 20.7127Z" fill="#6BA0E1"/>
</svg>
