<svg width="68" height="70" viewBox="0 0 68 70" fill="none" xmlns="http://www.w3.org/2000/svg">
<path fill-rule="evenodd" clip-rule="evenodd" d="M42.3266 14.6561H42.9187C43.6256 14.6421 44.2567 14.2129 44.5259 13.5631L48.7552 2.29747C49.0466 1.41692 48.6033 0.462344 47.7402 0.11154C46.8675 -0.220437 45.8895 0.213723 45.5556 1.08092C45.5506 1.09395 45.5457 1.10715 45.5411 1.12034L41.3963 12.4702C41.0477 13.3291 41.4636 14.3064 42.3266 14.6561ZM49.0091 20.9616C48.5335 20.9781 48.0729 20.795 47.7402 20.4571C47.1598 19.7468 47.1598 18.7293 47.7404 18.019L57.3833 8.51878C57.4143 8.48515 57.4469 8.45264 57.4809 8.42175C58.1348 7.82522 59.1516 7.86867 59.7516 8.51878C60.4068 9.20108 60.4068 10.2746 59.7516 10.9569L50.1932 20.4571C49.8809 20.7739 49.4553 20.9553 49.0091 20.9616ZM29.6386 10.1161C28.9643 9.51664 27.9444 9.51664 27.2701 10.1161C26.6149 10.7984 26.6149 11.8719 27.2701 12.5542L29.131 14.4038L7.22306 48.0327L0.625275 54.5904C-0.0288206 55.1867 -0.0725349 56.1973 0.527646 56.8473C0.558732 56.8811 0.591437 56.9134 0.625275 56.9443L13.1441 69.3869C13.7441 70.037 14.7609 70.0805 15.4148 69.484C15.4488 69.4531 15.4813 69.4205 15.5124 69.3869L22.1947 62.8293L27.3545 59.5504L34.5443 66.6965C35.1443 67.3466 36.1611 67.3901 36.815 66.7935C36.849 66.7626 36.8816 66.7301 36.9127 66.6965L49.939 53.7494C50.2578 53.439 50.4401 53.0159 50.4466 52.5724C50.4634 52.0998 50.2792 51.6422 49.939 51.3113L46.048 47.4439L55.9447 41.1385L57.8057 42.9881C58.1717 43.261 58.617 43.4084 59.0745 43.4084C59.504 43.3963 59.9187 43.2492 60.2587 42.9881C60.8391 42.2778 60.8391 41.2603 60.2587 40.55L29.6386 10.1161ZM14.3284 65.856L4.17795 55.7673L8.57642 51.3956L18.7269 61.4843L14.3284 65.856ZM35.7288 63.0816L46.3868 52.5726L43.1726 49.3779L30.2307 57.6169L35.7288 63.0816ZM21.3491 59.2984L10.7757 48.7894L31.5841 16.8419L53.492 38.7007L21.3491 59.2984ZM65.7123 19.1813C66.593 18.8712 67.5599 19.3294 67.8719 20.2048C68.1634 21.0853 67.7201 22.0399 66.8568 22.3904L55.5222 26.5099L54.9301 26.6781C54.1936 26.6752 53.5437 26.1993 53.3228 25.5011C53.3102 25.4688 53.2987 25.4361 53.2882 25.4029C53.0214 24.5617 53.4914 23.6645 54.338 23.3993L65.6726 19.1958C65.6857 19.1908 65.699 19.186 65.7123 19.1813Z" fill="#6BA0E1"/>
</svg>
