<svg width="68" height="70" viewBox="0 0 68 70" fill="none" xmlns="http://www.w3.org/2000/svg">
<path fill-rule="evenodd" clip-rule="evenodd" d="M61.5228 7.58403C61.6668 7.58 61.8107 7.58097 61.9545 7.58677C65.4169 7.72774 68.1088 10.6315 67.9669 14.0724V62.7781C67.9669 66.4858 65.2538 69.9406 61.523 69.9406H6.57965C2.8489 69.9406 0.135717 66.4858 0.135717 62.7781V14.0724C0.129874 13.9295 0.128901 13.7863 0.132958 13.6434C0.229521 10.201 3.11587 7.4879 6.57981 7.58387H12.0062V2.94935C12.0062 1.09548 13.7868 0 15.6521 0H20.6547C22.5201 0 23.8766 1.09548 23.8766 2.94935V7.58387H44.226V2.94935C44.226 1.09548 45.5826 0 47.448 0H52.4504C54.3158 0 56.0965 1.09548 56.0963 2.94935V7.58403H61.5228ZM52.7049 3.37065H47.448V12.6398H52.7049V3.37065ZM15.6522 3.37065H20.4852V12.6398H15.6522V3.37065ZM61.523 66.57C63.3884 66.57 64.5754 64.6319 64.5754 62.7781V26.9652H3.52744V62.7781C3.52744 64.6319 4.71444 66.57 6.57981 66.57H61.523ZM64.5754 14.0724V23.5945H3.52728V14.0724C3.38365 12.4966 4.55263 11.1034 6.13822 10.9606C6.28493 10.9474 6.43261 10.9455 6.57965 10.9547H12.0062V12.8085C12.0062 14.6624 13.7867 16.0106 15.6521 16.0106H20.6547C22.3866 16.0579 23.8291 14.7006 23.8766 12.9794C23.8783 12.9224 23.8783 12.8655 23.8766 12.8085V10.9545H44.226V12.8084C44.1785 14.5297 45.5441 15.9632 47.2761 16.0105C47.3334 16.0121 47.3907 16.0121 47.448 16.0105H52.4506C54.316 16.0105 56.0965 14.6623 56.0965 12.8084V10.9545H61.523C63.112 10.855 64.4812 12.0545 64.5814 13.6337C64.5906 13.7798 64.5887 13.9266 64.5754 14.0724ZM24.6397 49.9697L23.1136 58.3963C23.0532 58.7577 23.1129 59.129 23.2838 59.4537C23.7179 60.2784 24.7426 60.5973 25.5724 60.1658L33.2034 56.2053L40.8343 60.1658L41.5974 60.3344C41.9653 60.3408 42.3244 60.2218 42.6148 59.9973C43.1216 59.6294 43.3824 59.0135 43.2932 58.3961L41.767 49.9695L47.9566 44.071C48.3995 43.5953 48.5602 42.9244 48.3805 42.3015C48.1522 41.7256 47.6377 41.3103 47.0239 41.206L38.545 39.9419L34.7295 32.2737C34.5632 31.9324 34.286 31.6568 33.9426 31.4916C33.0997 31.086 32.0855 31.4361 31.6772 32.2737L27.8617 39.9419L19.3828 41.206C18.769 41.3102 18.2546 41.7256 18.0262 42.3015C17.8466 42.9244 18.0074 43.5953 18.4501 44.071L24.6397 49.9697ZM29.3032 43.1442C29.8357 43.065 30.2868 42.7127 30.4902 42.2173L33.2034 36.8242L35.9165 42.2173C36.12 42.7127 36.5711 43.065 37.1035 43.1442L43.1236 43.9868L38.7993 48.1158C38.3965 48.5121 38.2076 49.0753 38.2905 49.6326L39.3079 55.6155L33.9663 52.7505L33.2032 52.5819L32.4401 52.7505L27.0984 55.6155L28.1159 49.6326C28.1989 49.0753 28.0099 48.5121 27.6071 48.1158L23.2828 43.9868L29.3032 43.1442Z" fill="#F28E73"/>
</svg>
