<svg width="16" height="16" viewBox="0 0 16 16" fill="none" xmlns="http://www.w3.org/2000/svg">
<path fill-rule="evenodd" clip-rule="evenodd" d="M6.6515 6.70058C6.59141 6.63837 6.51953 6.58874 6.44006 6.55461C6.3606 6.52047 6.27512 6.5025 6.18863 6.50175C6.10215 6.501 6.01638 6.51748 5.93632 6.55023C5.85627 6.58298 5.78355 6.63135 5.72239 6.69251C5.66123 6.75366 5.61286 6.82639 5.58011 6.90644C5.54736 6.98649 5.53088 7.07226 5.53163 7.15875C5.53238 7.24524 5.55035 7.33071 5.58449 7.41018C5.61863 7.48965 5.66825 7.56153 5.73046 7.62161L6.89836 8.78951L5.73046 9.95742C5.66825 10.0175 5.61863 10.0894 5.58449 10.1688C5.55035 10.2483 5.53238 10.3338 5.53163 10.4203C5.53088 10.5068 5.54736 10.5925 5.58011 10.6726C5.61286 10.7526 5.66123 10.8254 5.72239 10.8865C5.78355 10.9477 5.85627 10.996 5.93632 11.0288C6.01638 11.0616 6.10215 11.078 6.18863 11.0773C6.27512 11.0765 6.3606 11.0586 6.44006 11.0244C6.51953 10.9903 6.59141 10.9407 6.6515 10.8784L7.8194 9.71055L8.9873 10.8784C9.11015 10.9971 9.27468 11.0628 9.44547 11.0613C9.61626 11.0598 9.77963 10.9913 9.9004 10.8705C10.0212 10.7497 10.0897 10.5864 10.0912 10.4156C10.0926 10.2448 10.027 10.0803 9.90833 9.95742L8.74043 8.78951L9.90833 7.62161C10.027 7.49876 10.0926 7.33423 10.0912 7.16344C10.0897 6.99265 10.0212 6.82928 9.9004 6.70851C9.77963 6.58775 9.61626 6.51924 9.44547 6.51776C9.27468 6.51627 9.11015 6.58193 8.9873 6.70058L7.8194 7.86848L6.6515 6.70058ZM8.13336 1.29879C8.57563 1.29814 8.96776 1.29749 9.33057 1.4473C9.69273 1.59712 9.96956 1.8759 10.2816 2.18856C10.9004 2.80931 11.5198 3.42876 12.1406 4.04691C12.4532 4.35957 12.7314 4.6364 12.8818 4.99856C13.0316 5.36137 13.0316 5.75414 13.0303 6.19577C13.0277 7.83461 13.0303 9.47345 13.0303 11.1123C13.0303 11.6894 13.0303 12.187 12.9769 12.5857C12.9196 13.0123 12.79 13.422 12.4578 13.7536C12.1256 14.0858 11.7165 14.2154 11.2899 14.2727C10.8912 14.3261 10.3936 14.3261 9.81649 14.3261H5.82231C5.24519 14.3261 4.74755 14.3261 4.34891 14.2727C3.92227 14.2154 3.51256 14.0858 3.18101 13.7536C2.84881 13.4214 2.71919 13.0123 2.66187 12.5857C2.60846 12.187 2.60846 11.6894 2.60846 11.1123V4.51264C2.60846 3.93553 2.60846 3.43788 2.66187 3.03924C2.71919 2.6126 2.84881 2.20289 3.18101 1.87134C3.51321 1.53915 3.92227 1.40952 4.34891 1.3522C4.74755 1.29879 5.24519 1.29879 5.82231 1.29879C6.59287 1.29879 7.36279 1.30009 8.13336 1.29879Z" fill="white" fill-opacity="0.5"/>
</svg>
