<svg width="16" height="16" viewBox="0 0 16 16" fill="none" xmlns="http://www.w3.org/2000/svg">
<path fill-rule="evenodd" clip-rule="evenodd" d="M1.3056 8.07814C1.3056 4.48064 4.22177 1.56447 7.81927 1.56447C11.4168 1.56447 14.3329 4.48064 14.3329 8.07814C14.3329 11.6756 11.4168 14.5918 7.81927 14.5918C4.22177 14.5918 1.3056 11.6756 1.3056 8.07814ZM5.21381 6.77541C5.21381 6.60265 5.28243 6.43698 5.40459 6.31482C5.52674 6.19266 5.69242 6.12404 5.86517 6.12404H9.77338C9.94613 6.12404 10.1118 6.19266 10.234 6.31482C10.3561 6.43698 10.4247 6.60265 10.4247 6.77541C10.4247 6.94816 10.3561 7.11384 10.234 7.23599C10.1118 7.35815 9.94613 7.42677 9.77338 7.42677H5.86517C5.69242 7.42677 5.52674 7.35815 5.40459 7.23599C5.28243 7.11384 5.21381 6.94816 5.21381 6.77541ZM5.21381 9.38087C5.21381 9.20812 5.28243 9.04244 5.40459 8.92029C5.52674 8.79813 5.69242 8.72951 5.86517 8.72951H9.77338C9.94613 8.72951 10.1118 8.79813 10.234 8.92029C10.3561 9.04244 10.4247 9.20812 10.4247 9.38087C10.4247 9.55363 10.3561 9.71931 10.234 9.84146C10.1118 9.96362 9.94613 10.0322 9.77338 10.0322H5.86517C5.69242 10.0322 5.52674 9.96362 5.40459 9.84146C5.28243 9.71931 5.21381 9.55363 5.21381 9.38087Z" fill="white" fill-opacity="0.5"/>
</svg>
