<svg width="60" height="43" viewBox="0 0 60 43" fill="none" xmlns="http://www.w3.org/2000/svg">
<g filter="url(#filter0_d_36_112)">
<path d="M31.48 38.1045V33.3788C41.1596 35.6917 46.874 35.4495 57.3342 33.3766V38.0973C57.3342 38.319 57.1761 38.512 56.9587 38.5583C46.9033 40.6995 41.2803 40.7327 31.8473 38.5635C31.6336 38.5144 31.48 38.3232 31.48 38.1045Z" fill="url(#paint0_linear_36_112)" stroke="url(#paint1_linear_36_112)" stroke-width="0.0857294"/>
<g filter="url(#filter1_d_36_112)">
<ellipse cx="44.4071" cy="33.2004" rx="12.97" ry="2.36843" fill="url(#paint2_linear_36_112)"/>
<path d="M57.3342 33.2004C57.3342 33.3468 57.2531 33.4957 57.085 33.6457C56.9171 33.7956 56.667 33.9421 56.3408 34.0829C55.6889 34.3644 54.7428 34.6189 53.5705 34.833C51.2267 35.261 47.9869 35.526 44.4071 35.526C40.8273 35.526 37.5875 35.261 35.2436 34.833C34.0714 34.6189 33.1253 34.3644 32.4734 34.0829C32.1472 33.9421 31.8971 33.7956 31.7292 33.6457C31.5611 33.4957 31.48 33.3468 31.48 33.2004C31.48 33.054 31.5611 32.9051 31.7292 32.7551C31.8971 32.6052 32.1472 32.4587 32.4734 32.3179C33.1253 32.0364 34.0714 31.7819 35.2436 31.5678C37.5875 31.1398 40.8273 30.8748 44.4071 30.8748C47.9869 30.8748 51.2267 31.1398 53.5705 31.5678C54.7428 31.7819 55.6889 32.0364 56.3408 32.3179C56.667 32.4587 56.9171 32.6052 57.085 32.7551C57.2531 32.9051 57.3342 33.054 57.3342 33.2004Z" stroke="white" stroke-opacity="0.2" stroke-width="0.0857294"/>
</g>
</g>
<g filter="url(#filter2_d_36_112)">
<path d="M2.14516 38.1045V33.3788C11.8247 35.6917 17.5391 35.4495 27.9994 33.3766V38.0973C27.9994 38.319 27.8413 38.512 27.6239 38.5583C17.5684 40.6995 11.9455 40.7327 2.51244 38.5635C2.2988 38.5144 2.14516 38.3232 2.14516 38.1045Z" fill="url(#paint3_linear_36_112)" stroke="url(#paint4_linear_36_112)" stroke-width="0.0857294"/>
<g filter="url(#filter3_d_36_112)">
<ellipse cx="15.0722" cy="33.2004" rx="12.97" ry="2.36843" fill="url(#paint5_linear_36_112)"/>
<path d="M27.9993 33.2004C27.9993 33.3468 27.9182 33.4957 27.7501 33.6457C27.5822 33.7956 27.332 33.9421 27.0059 34.0829C26.3539 34.3644 25.4079 34.6189 24.2356 34.833C21.8917 35.261 18.652 35.526 15.0722 35.526C11.4924 35.526 8.25259 35.261 5.90872 34.833C4.73643 34.6189 3.79039 34.3644 3.13844 34.0829C2.8123 33.9421 2.56217 33.7956 2.39425 33.6457C2.22617 33.4957 2.14507 33.3468 2.14507 33.2004C2.14507 33.054 2.22617 32.9051 2.39425 32.7551C2.56217 32.6052 2.8123 32.4587 3.13844 32.3179C3.79039 32.0364 4.73643 31.7819 5.90872 31.5678C8.25259 31.1398 11.4924 30.8748 15.0722 30.8748C18.652 30.8748 21.8917 31.1398 24.2356 31.5678C25.4079 31.7819 26.3539 32.0364 27.0059 32.3179C27.332 32.4587 27.5822 32.6052 27.7501 32.7551C27.9182 32.9051 27.9993 33.054 27.9993 33.2004Z" stroke="white" stroke-opacity="0.2" stroke-width="0.0857294"/>
</g>
</g>
<g filter="url(#filter4_d_36_112)">
<path d="M31.48 30.6044V25.8787C41.1596 28.1917 46.874 27.9495 57.3342 25.8766V30.5973C57.3342 30.819 57.1761 31.012 56.9587 31.0583C46.9033 33.1995 41.2803 33.2327 31.8473 31.0635C31.6336 31.0144 31.48 30.8232 31.48 30.6044Z" fill="url(#paint6_linear_36_112)" stroke="url(#paint7_linear_36_112)" stroke-width="0.0857294"/>
<g filter="url(#filter5_d_36_112)">
<ellipse cx="44.4071" cy="25.7004" rx="12.97" ry="2.36843" fill="url(#paint8_linear_36_112)"/>
<path d="M57.3342 25.7004C57.3342 25.8468 57.2531 25.9957 57.085 26.1457C56.9171 26.2956 56.667 26.4421 56.3408 26.5829C55.6889 26.8644 54.7428 27.1189 53.5705 27.3329C51.2267 27.761 47.9869 28.0259 44.4071 28.0259C40.8273 28.0259 37.5875 27.761 35.2436 27.3329C34.0714 27.1189 33.1253 26.8644 32.4734 26.5829C32.1472 26.4421 31.8971 26.2956 31.7292 26.1457C31.5611 25.9957 31.48 25.8468 31.48 25.7004C31.48 25.554 31.5611 25.405 31.7292 25.255C31.8971 25.1052 32.1472 24.9586 32.4734 24.8178C33.1253 24.5364 34.0714 24.2819 35.2436 24.0678C37.5875 23.6398 40.8273 23.3748 44.4071 23.3748C47.9869 23.3748 51.2267 23.6398 53.5705 24.0678C54.7428 24.2819 55.6889 24.5364 56.3408 24.8178C56.667 24.9586 56.9171 25.1052 57.085 25.255C57.2531 25.405 57.3342 25.554 57.3342 25.7004Z" stroke="white" stroke-opacity="0.2" stroke-width="0.0857294"/>
</g>
</g>
<g filter="url(#filter6_d_36_112)">
<path d="M2.14516 30.6044V25.8787C11.8247 28.1917 17.5391 27.9495 27.9994 25.8766V30.5973C27.9994 30.819 27.8413 31.012 27.6239 31.0583C17.5684 33.1995 11.9455 33.2327 2.51244 31.0635C2.2988 31.0144 2.14516 30.8232 2.14516 30.6044Z" fill="#925FE2" stroke="url(#paint9_linear_36_112)" stroke-width="0.0857294"/>
<g filter="url(#filter7_d_36_112)">
<ellipse cx="15.0722" cy="25.7004" rx="12.97" ry="2.36843" fill="#925FE2"/>
<path d="M27.9993 25.7004C27.9993 25.8468 27.9182 25.9957 27.7501 26.1457C27.5822 26.2956 27.332 26.4421 27.0059 26.5829C26.3539 26.8644 25.4079 27.1189 24.2356 27.3329C21.8917 27.761 18.652 28.0259 15.0722 28.0259C11.4924 28.0259 8.25259 27.761 5.90872 27.3329C4.73643 27.1189 3.79039 26.8644 3.13844 26.5829C2.8123 26.4421 2.56217 26.2956 2.39425 26.1457C2.22617 25.9957 2.14507 25.8468 2.14507 25.7004C2.14507 25.554 2.22617 25.405 2.39425 25.255C2.56217 25.1052 2.8123 24.9586 3.13844 24.8178C3.79039 24.5364 4.73643 24.2819 5.90872 24.0678C8.25259 23.6398 11.4924 23.3748 15.0722 23.3748C18.652 23.3748 21.8917 23.6398 24.2356 24.0678C25.4079 24.2819 26.3539 24.5364 27.0059 24.8178C27.332 24.9586 27.5822 25.1052 27.7501 25.255C27.9182 25.405 27.9993 25.554 27.9993 25.7004Z" stroke="#E2D4F7" stroke-width="0.0857294"/>
</g>
<g filter="url(#filter8_f_36_112)">
<ellipse cx="15.2584" cy="25.7962" rx="6.9643" ry="0.535716" fill="#E2D4F7"/>
</g>
</g>
<g filter="url(#filter9_d_36_112)">
<path d="M31.4683 23.1271V18.4014C41.1479 20.7143 46.8623 20.4722 57.3225 18.3993V23.1199C57.3225 23.3416 57.1645 23.5347 56.9471 23.5809C46.8916 25.7221 41.2686 25.7553 31.8356 23.5862C31.622 23.537 31.4683 23.3459 31.4683 23.1271Z" fill="url(#paint10_linear_36_112)" stroke="url(#paint11_linear_36_112)" stroke-width="0.0857294"/>
<g filter="url(#filter10_d_36_112)">
<ellipse cx="44.3955" cy="18.223" rx="12.97" ry="2.36843" fill="url(#paint12_linear_36_112)"/>
<path d="M57.3226 18.223C57.3226 18.3694 57.2415 18.5183 57.0734 18.6683C56.9055 18.8182 56.6554 18.9647 56.3293 19.1055C55.6773 19.387 54.7313 19.6415 53.559 19.8555C51.2151 20.2836 47.9753 20.5485 44.3955 20.5485C40.8157 20.5485 37.5759 20.2836 35.2321 19.8555C34.0598 19.6415 33.1138 19.387 32.4618 19.1055C32.1357 18.9647 31.8855 18.8182 31.7176 18.6683C31.5495 18.5183 31.4684 18.3694 31.4684 18.223C31.4684 18.0766 31.5495 17.9276 31.7176 17.7776C31.8855 17.6278 32.1357 17.4812 32.4618 17.3404C33.1138 17.059 34.0598 16.8045 35.2321 16.5904C37.5759 16.1624 40.8157 15.8974 44.3955 15.8974C47.9753 15.8974 51.2151 16.1624 53.559 16.5904C54.7313 16.8045 55.6773 17.059 56.3293 17.3404C56.6554 17.4812 56.9055 17.6278 57.0734 17.7776C57.2415 17.9276 57.3226 18.0766 57.3226 18.223Z" stroke="white" stroke-opacity="0.2" stroke-width="0.0857294"/>
</g>
</g>
<g filter="url(#filter11_d_36_112)">
<path d="M31.4683 15.6721V10.9464C41.1479 13.2593 46.8623 13.0172 57.3225 10.9443V15.6649C57.3225 15.8867 57.1645 16.0797 56.9471 16.126C46.8916 18.2671 41.2686 18.3003 31.8356 16.1312C31.622 16.0821 31.4683 15.8909 31.4683 15.6721Z" fill="url(#paint13_linear_36_112)" stroke="url(#paint14_linear_36_112)" stroke-width="0.0857294"/>
<g filter="url(#filter12_d_36_112)">
<ellipse cx="44.3955" cy="10.7681" rx="12.97" ry="2.36843" fill="url(#paint15_linear_36_112)"/>
<path d="M57.3226 10.7681C57.3226 10.9145 57.2415 11.0634 57.0734 11.2134C56.9055 11.3633 56.6554 11.5098 56.3293 11.6506C55.6773 11.9321 54.7313 12.1866 53.559 12.4006C51.2151 12.8286 47.9753 13.0936 44.3955 13.0936C40.8157 13.0936 37.5759 12.8286 35.2321 12.4006C34.0598 12.1866 33.1138 11.9321 32.4618 11.6506C32.1357 11.5098 31.8855 11.3633 31.7176 11.2134C31.5495 11.0634 31.4684 10.9145 31.4684 10.7681C31.4684 10.6217 31.5495 10.4727 31.7176 10.3227C31.8855 10.1729 32.1357 10.0263 32.4618 9.88553C33.1138 9.60405 34.0598 9.34958 35.2321 9.13551C37.5759 8.7075 40.8157 8.44251 44.3955 8.44251C47.9753 8.44251 51.2151 8.7075 53.559 9.13551C54.7313 9.34958 55.6773 9.60405 56.3293 9.88553C56.6554 10.0263 56.9055 10.1729 57.0734 10.3227C57.2415 10.4727 57.3226 10.6217 57.3226 10.7681Z" stroke="white" stroke-opacity="0.2" stroke-width="0.0857294"/>
</g>
</g>
<g filter="url(#filter13_d_36_112)">
<path d="M27.8283 8.78459V4.05891C37.5078 6.37182 43.2223 6.12966 53.6825 4.05678V8.77742C53.6825 8.99914 53.5244 9.19215 53.307 9.23845C43.2515 11.3796 37.6286 11.4128 28.1955 9.24368C27.9819 9.19455 27.8283 9.00335 27.8283 8.78459Z" fill="url(#paint16_linear_36_112)" stroke="url(#paint17_linear_36_112)" stroke-width="0.0857294"/>
<g filter="url(#filter14_d_36_112)">
<ellipse cx="40.7554" cy="3.88053" rx="12.97" ry="2.36843" fill="url(#paint18_linear_36_112)"/>
<path d="M53.6825 3.88053C53.6825 4.02693 53.6014 4.17587 53.4333 4.32587C53.2654 4.47572 53.0153 4.62227 52.6891 4.76307C52.0372 5.04455 51.0912 5.29902 49.9189 5.51309C47.575 5.9411 44.3352 6.20609 40.7554 6.20609C37.1756 6.20609 33.9358 5.9411 31.592 5.51309C30.4197 5.29902 29.4737 5.04455 28.8217 4.76307C28.4956 4.62227 28.2454 4.47572 28.0775 4.32587C27.9094 4.17587 27.8283 4.02693 27.8283 3.88053C27.8283 3.73412 27.9094 3.58518 28.0775 3.43519C28.2454 3.28534 28.4956 3.13879 28.8217 2.99798C29.4737 2.71651 30.4197 2.46203 31.592 2.24796C33.9358 1.81995 37.1756 1.55496 40.7554 1.55496C44.3352 1.55496 47.575 1.81995 49.9189 2.24796C51.0912 2.46203 52.0372 2.71651 52.6891 2.99798C53.0153 3.13879 53.2654 3.28534 53.4333 3.43519C53.6014 3.58518 53.6825 3.73412 53.6825 3.88053Z" stroke="white" stroke-opacity="0.2" stroke-width="0.0857294"/>
</g>
</g>
<defs>
<filter id="filter0_d_36_112" x="30.7513" y="30.3176" width="29.0262" height="12.4745" filterUnits="userSpaceOnUse" color-interpolation-filters="sRGB">
<feFlood flood-opacity="0" result="BackgroundImageFix"/>
<feColorMatrix in="SourceAlpha" type="matrix" values="0 0 0 0 0 0 0 0 0 0 0 0 0 0 0 0 0 0 127 0" result="hardAlpha"/>
<feOffset dx="0.857294" dy="1.02875"/>
<feGaussianBlur stdDeviation="0.771564"/>
<feComposite in2="hardAlpha" operator="out"/>
<feColorMatrix type="matrix" values="0 0 0 0 0.228976 0 0 0 0 0.34229 0 0 0 0 0.504167 0 0 0 0.15 0"/>
<feBlend mode="normal" in2="BackgroundImageFix" result="effect1_dropShadow_36_112"/>
<feBlend mode="normal" in="SourceGraphic" in2="effect1_dropShadow_36_112" result="shape"/>
</filter>
<filter id="filter1_d_36_112" x="30.0655" y="29.9747" width="28.6833" height="7.4802" filterUnits="userSpaceOnUse" color-interpolation-filters="sRGB">
<feFlood flood-opacity="0" result="BackgroundImageFix"/>
<feColorMatrix in="SourceAlpha" type="matrix" values="0 0 0 0 0 0 0 0 0 0 0 0 0 0 0 0 0 0 127 0" result="hardAlpha"/>
<feOffset dy="0.514376"/>
<feGaussianBlur stdDeviation="0.685835"/>
<feComposite in2="hardAlpha" operator="out"/>
<feColorMatrix type="matrix" values="0 0 0 0 0.6825 0 0 0 0 0.782885 0 0 0 0 0.9 0 0 0 0.5 0"/>
<feBlend mode="normal" in2="BackgroundImageFix" result="effect1_dropShadow_36_112"/>
<feBlend mode="normal" in="SourceGraphic" in2="effect1_dropShadow_36_112" result="shape"/>
</filter>
<filter id="filter2_d_36_112" x="1.41637" y="30.3176" width="29.0263" height="12.4745" filterUnits="userSpaceOnUse" color-interpolation-filters="sRGB">
<feFlood flood-opacity="0" result="BackgroundImageFix"/>
<feColorMatrix in="SourceAlpha" type="matrix" values="0 0 0 0 0 0 0 0 0 0 0 0 0 0 0 0 0 0 127 0" result="hardAlpha"/>
<feOffset dx="0.857294" dy="1.02875"/>
<feGaussianBlur stdDeviation="0.771564"/>
<feComposite in2="hardAlpha" operator="out"/>
<feColorMatrix type="matrix" values="0 0 0 0 0.228976 0 0 0 0 0.34229 0 0 0 0 0.504167 0 0 0 0.15 0"/>
<feBlend mode="normal" in2="BackgroundImageFix" result="effect1_dropShadow_36_112"/>
<feBlend mode="normal" in="SourceGraphic" in2="effect1_dropShadow_36_112" result="shape"/>
</filter>
<filter id="filter3_d_36_112" x="0.730533" y="29.9747" width="28.6833" height="7.4802" filterUnits="userSpaceOnUse" color-interpolation-filters="sRGB">
<feFlood flood-opacity="0" result="BackgroundImageFix"/>
<feColorMatrix in="SourceAlpha" type="matrix" values="0 0 0 0 0 0 0 0 0 0 0 0 0 0 0 0 0 0 127 0" result="hardAlpha"/>
<feOffset dy="0.514376"/>
<feGaussianBlur stdDeviation="0.685835"/>
<feComposite in2="hardAlpha" operator="out"/>
<feColorMatrix type="matrix" values="0 0 0 0 0.6825 0 0 0 0 0.782885 0 0 0 0 0.9 0 0 0 0.5 0"/>
<feBlend mode="normal" in2="BackgroundImageFix" result="effect1_dropShadow_36_112"/>
<feBlend mode="normal" in="SourceGraphic" in2="effect1_dropShadow_36_112" result="shape"/>
</filter>
<filter id="filter4_d_36_112" x="30.7513" y="22.8176" width="29.0262" height="12.4745" filterUnits="userSpaceOnUse" color-interpolation-filters="sRGB">
<feFlood flood-opacity="0" result="BackgroundImageFix"/>
<feColorMatrix in="SourceAlpha" type="matrix" values="0 0 0 0 0 0 0 0 0 0 0 0 0 0 0 0 0 0 127 0" result="hardAlpha"/>
<feOffset dx="0.857294" dy="1.02875"/>
<feGaussianBlur stdDeviation="0.771564"/>
<feComposite in2="hardAlpha" operator="out"/>
<feColorMatrix type="matrix" values="0 0 0 0 0.228976 0 0 0 0 0.34229 0 0 0 0 0.504167 0 0 0 0.15 0"/>
<feBlend mode="normal" in2="BackgroundImageFix" result="effect1_dropShadow_36_112"/>
<feBlend mode="normal" in="SourceGraphic" in2="effect1_dropShadow_36_112" result="shape"/>
</filter>
<filter id="filter5_d_36_112" x="30.0655" y="22.4747" width="28.6833" height="7.4802" filterUnits="userSpaceOnUse" color-interpolation-filters="sRGB">
<feFlood flood-opacity="0" result="BackgroundImageFix"/>
<feColorMatrix in="SourceAlpha" type="matrix" values="0 0 0 0 0 0 0 0 0 0 0 0 0 0 0 0 0 0 127 0" result="hardAlpha"/>
<feOffset dy="0.514376"/>
<feGaussianBlur stdDeviation="0.685835"/>
<feComposite in2="hardAlpha" operator="out"/>
<feColorMatrix type="matrix" values="0 0 0 0 0.6825 0 0 0 0 0.782885 0 0 0 0 0.9 0 0 0 0.5 0"/>
<feBlend mode="normal" in2="BackgroundImageFix" result="effect1_dropShadow_36_112"/>
<feBlend mode="normal" in="SourceGraphic" in2="effect1_dropShadow_36_112" result="shape"/>
</filter>
<filter id="filter6_d_36_112" x="1.41637" y="22.8176" width="29.0263" height="12.4745" filterUnits="userSpaceOnUse" color-interpolation-filters="sRGB">
<feFlood flood-opacity="0" result="BackgroundImageFix"/>
<feColorMatrix in="SourceAlpha" type="matrix" values="0 0 0 0 0 0 0 0 0 0 0 0 0 0 0 0 0 0 127 0" result="hardAlpha"/>
<feOffset dx="0.857294" dy="1.02875"/>
<feGaussianBlur stdDeviation="0.771564"/>
<feComposite in2="hardAlpha" operator="out"/>
<feColorMatrix type="matrix" values="0 0 0 0 0.228976 0 0 0 0 0.34229 0 0 0 0 0.504167 0 0 0 0.15 0"/>
<feBlend mode="normal" in2="BackgroundImageFix" result="effect1_dropShadow_36_112"/>
<feBlend mode="normal" in="SourceGraphic" in2="effect1_dropShadow_36_112" result="shape"/>
</filter>
<filter id="filter7_d_36_112" x="0.730533" y="22.4747" width="28.6833" height="7.4802" filterUnits="userSpaceOnUse" color-interpolation-filters="sRGB">
<feFlood flood-opacity="0" result="BackgroundImageFix"/>
<feColorMatrix in="SourceAlpha" type="matrix" values="0 0 0 0 0 0 0 0 0 0 0 0 0 0 0 0 0 0 127 0" result="hardAlpha"/>
<feOffset dy="0.514376"/>
<feGaussianBlur stdDeviation="0.685835"/>
<feComposite in2="hardAlpha" operator="out"/>
<feColorMatrix type="matrix" values="0 0 0 0 0.6825 0 0 0 0 0.782885 0 0 0 0 0.9 0 0 0 0.5 0"/>
<feBlend mode="normal" in2="BackgroundImageFix" result="effect1_dropShadow_36_112"/>
<feBlend mode="normal" in="SourceGraphic" in2="effect1_dropShadow_36_112" result="shape"/>
</filter>
<filter id="filter8_f_36_112" x="4.86492" y="21.8313" width="20.787" height="7.92978" filterUnits="userSpaceOnUse" color-interpolation-filters="sRGB">
<feFlood flood-opacity="0" result="BackgroundImageFix"/>
<feBlend mode="normal" in="SourceGraphic" in2="BackgroundImageFix" result="shape"/>
<feGaussianBlur stdDeviation="1.71459" result="effect1_foregroundBlur_36_112"/>
</filter>
<filter id="filter9_d_36_112" x="30.7396" y="15.3402" width="29.0263" height="12.4745" filterUnits="userSpaceOnUse" color-interpolation-filters="sRGB">
<feFlood flood-opacity="0" result="BackgroundImageFix"/>
<feColorMatrix in="SourceAlpha" type="matrix" values="0 0 0 0 0 0 0 0 0 0 0 0 0 0 0 0 0 0 127 0" result="hardAlpha"/>
<feOffset dx="0.857294" dy="1.02875"/>
<feGaussianBlur stdDeviation="0.771564"/>
<feComposite in2="hardAlpha" operator="out"/>
<feColorMatrix type="matrix" values="0 0 0 0 0.228976 0 0 0 0 0.34229 0 0 0 0 0.504167 0 0 0 0.15 0"/>
<feBlend mode="normal" in2="BackgroundImageFix" result="effect1_dropShadow_36_112"/>
<feBlend mode="normal" in="SourceGraphic" in2="effect1_dropShadow_36_112" result="shape"/>
</filter>
<filter id="filter10_d_36_112" x="30.0539" y="14.9973" width="28.6833" height="7.4802" filterUnits="userSpaceOnUse" color-interpolation-filters="sRGB">
<feFlood flood-opacity="0" result="BackgroundImageFix"/>
<feColorMatrix in="SourceAlpha" type="matrix" values="0 0 0 0 0 0 0 0 0 0 0 0 0 0 0 0 0 0 127 0" result="hardAlpha"/>
<feOffset dy="0.514376"/>
<feGaussianBlur stdDeviation="0.685835"/>
<feComposite in2="hardAlpha" operator="out"/>
<feColorMatrix type="matrix" values="0 0 0 0 0.6825 0 0 0 0 0.782885 0 0 0 0 0.9 0 0 0 0.5 0"/>
<feBlend mode="normal" in2="BackgroundImageFix" result="effect1_dropShadow_36_112"/>
<feBlend mode="normal" in="SourceGraphic" in2="effect1_dropShadow_36_112" result="shape"/>
</filter>
<filter id="filter11_d_36_112" x="30.7396" y="7.88527" width="29.0263" height="12.4745" filterUnits="userSpaceOnUse" color-interpolation-filters="sRGB">
<feFlood flood-opacity="0" result="BackgroundImageFix"/>
<feColorMatrix in="SourceAlpha" type="matrix" values="0 0 0 0 0 0 0 0 0 0 0 0 0 0 0 0 0 0 127 0" result="hardAlpha"/>
<feOffset dx="0.857294" dy="1.02875"/>
<feGaussianBlur stdDeviation="0.771564"/>
<feComposite in2="hardAlpha" operator="out"/>
<feColorMatrix type="matrix" values="0 0 0 0 0.228976 0 0 0 0 0.34229 0 0 0 0 0.504167 0 0 0 0.15 0"/>
<feBlend mode="normal" in2="BackgroundImageFix" result="effect1_dropShadow_36_112"/>
<feBlend mode="normal" in="SourceGraphic" in2="effect1_dropShadow_36_112" result="shape"/>
</filter>
<filter id="filter12_d_36_112" x="30.0539" y="7.54235" width="28.6833" height="7.4802" filterUnits="userSpaceOnUse" color-interpolation-filters="sRGB">
<feFlood flood-opacity="0" result="BackgroundImageFix"/>
<feColorMatrix in="SourceAlpha" type="matrix" values="0 0 0 0 0 0 0 0 0 0 0 0 0 0 0 0 0 0 127 0" result="hardAlpha"/>
<feOffset dy="0.514376"/>
<feGaussianBlur stdDeviation="0.685835"/>
<feComposite in2="hardAlpha" operator="out"/>
<feColorMatrix type="matrix" values="0 0 0 0 0.6825 0 0 0 0 0.782885 0 0 0 0 0.9 0 0 0 0.5 0"/>
<feBlend mode="normal" in2="BackgroundImageFix" result="effect1_dropShadow_36_112"/>
<feBlend mode="normal" in="SourceGraphic" in2="effect1_dropShadow_36_112" result="shape"/>
</filter>
<filter id="filter13_d_36_112" x="27.0996" y="0.997724" width="29.0262" height="12.4745" filterUnits="userSpaceOnUse" color-interpolation-filters="sRGB">
<feFlood flood-opacity="0" result="BackgroundImageFix"/>
<feColorMatrix in="SourceAlpha" type="matrix" values="0 0 0 0 0 0 0 0 0 0 0 0 0 0 0 0 0 0 127 0" result="hardAlpha"/>
<feOffset dx="0.857294" dy="1.02875"/>
<feGaussianBlur stdDeviation="0.771564"/>
<feComposite in2="hardAlpha" operator="out"/>
<feColorMatrix type="matrix" values="0 0 0 0 0.228976 0 0 0 0 0.34229 0 0 0 0 0.504167 0 0 0 0.15 0"/>
<feBlend mode="normal" in2="BackgroundImageFix" result="effect1_dropShadow_36_112"/>
<feBlend mode="normal" in="SourceGraphic" in2="effect1_dropShadow_36_112" result="shape"/>
</filter>
<filter id="filter14_d_36_112" x="26.4138" y="0.654806" width="28.6833" height="7.4802" filterUnits="userSpaceOnUse" color-interpolation-filters="sRGB">
<feFlood flood-opacity="0" result="BackgroundImageFix"/>
<feColorMatrix in="SourceAlpha" type="matrix" values="0 0 0 0 0 0 0 0 0 0 0 0 0 0 0 0 0 0 127 0" result="hardAlpha"/>
<feOffset dy="0.514376"/>
<feGaussianBlur stdDeviation="0.685835"/>
<feComposite in2="hardAlpha" operator="out"/>
<feColorMatrix type="matrix" values="0 0 0 0 0.6825 0 0 0 0 0.782885 0 0 0 0 0.9 0 0 0 0.5 0"/>
<feBlend mode="normal" in2="BackgroundImageFix" result="effect1_dropShadow_36_112"/>
<feBlend mode="normal" in="SourceGraphic" in2="effect1_dropShadow_36_112" result="shape"/>
</filter>
<linearGradient id="paint0_linear_36_112" x1="44.4071" y1="33.3244" x2="51.7555" y2="48.4574" gradientUnits="userSpaceOnUse">
<stop stop-color="#925FE2"/>
<stop offset="1" stop-color="#E2D4F7"/>
</linearGradient>
<linearGradient id="paint1_linear_36_112" x1="44.4071" y1="33.3244" x2="44.4071" y2="40.2202" gradientUnits="userSpaceOnUse">
<stop stop-color="#925FE2"/>
<stop offset="1" stop-color="#DFE7F5"/>
</linearGradient>
<linearGradient id="paint2_linear_36_112" x1="44.4071" y1="30.832" x2="48.2631" y2="42.3921" gradientUnits="userSpaceOnUse">
<stop stop-color="#925FE2"/>
<stop offset="1" stop-color="#E2D4F7"/>
</linearGradient>
<linearGradient id="paint3_linear_36_112" x1="15.0723" y1="33.3244" x2="23.9376" y2="46.71" gradientUnits="userSpaceOnUse">
<stop stop-color="#925FE2"/>
<stop offset="1" stop-color="#E2D4F7"/>
</linearGradient>
<linearGradient id="paint4_linear_36_112" x1="15.0723" y1="33.3244" x2="15.0723" y2="40.2202" gradientUnits="userSpaceOnUse">
<stop stop-color="#925FE2"/>
<stop offset="1" stop-color="#DFE7F5"/>
</linearGradient>
<linearGradient id="paint5_linear_36_112" x1="15.0722" y1="30.832" x2="20.0583" y2="41.7916" gradientUnits="userSpaceOnUse">
<stop stop-color="#925FE2"/>
<stop offset="1" stop-color="#E2D4F7"/>
</linearGradient>
<linearGradient id="paint6_linear_36_112" x1="44.4071" y1="25.8244" x2="50.9574" y2="44.0541" gradientUnits="userSpaceOnUse">
<stop stop-color="#925FE2"/>
<stop offset="1" stop-color="#E2D4F7"/>
</linearGradient>
<linearGradient id="paint7_linear_36_112" x1="44.4071" y1="25.8244" x2="44.4071" y2="32.7202" gradientUnits="userSpaceOnUse">
<stop stop-color="#925FE2"/>
<stop offset="1" stop-color="#DFE7F5"/>
</linearGradient>
<linearGradient id="paint8_linear_36_112" x1="44.4071" y1="23.332" x2="47.6966" y2="36.6592" gradientUnits="userSpaceOnUse">
<stop stop-color="#925FE2"/>
<stop offset="1" stop-color="#E2D4F7"/>
</linearGradient>
<linearGradient id="paint9_linear_36_112" x1="15.0723" y1="25.8244" x2="15.0723" y2="32.7202" gradientUnits="userSpaceOnUse">
<stop stop-color="#925FE2"/>
<stop offset="1" stop-color="#E2D4F7"/>
</linearGradient>
<linearGradient id="paint10_linear_36_112" x1="44.3954" y1="18.3471" x2="52.3518" y2="34.8425" gradientUnits="userSpaceOnUse">
<stop stop-color="#925FE2"/>
<stop offset="1" stop-color="#E2D4F7"/>
</linearGradient>
<linearGradient id="paint11_linear_36_112" x1="44.3954" y1="18.3471" x2="44.3954" y2="25.2428" gradientUnits="userSpaceOnUse">
<stop stop-color="#925FE2"/>
<stop offset="1" stop-color="#DFE7F5"/>
</linearGradient>
<linearGradient id="paint12_linear_36_112" x1="44.3955" y1="15.8546" x2="48.5655" y2="28.4402" gradientUnits="userSpaceOnUse">
<stop stop-color="#925FE2"/>
<stop offset="1" stop-color="#E2D4F7"/>
</linearGradient>
<linearGradient id="paint13_linear_36_112" x1="44.3954" y1="10.8921" x2="49.9736" y2="26.6779" gradientUnits="userSpaceOnUse">
<stop stop-color="#925FE2"/>
<stop offset="1" stop-color="#E2D4F7"/>
</linearGradient>
<linearGradient id="paint14_linear_36_112" x1="44.3954" y1="10.8921" x2="44.3954" y2="17.7879" gradientUnits="userSpaceOnUse">
<stop stop-color="#925FE2"/>
<stop offset="1" stop-color="#DFE7F5"/>
</linearGradient>
<linearGradient id="paint15_linear_36_112" x1="44.3955" y1="8.39964" x2="47.1916" y2="19.9186" gradientUnits="userSpaceOnUse">
<stop stop-color="#925FE2"/>
<stop offset="1" stop-color="#E2D4F7"/>
</linearGradient>
<linearGradient id="paint16_linear_36_112" x1="40.7554" y1="4.00458" x2="43.6495" y2="23.5947" gradientUnits="userSpaceOnUse">
<stop stop-color="#925FE2"/>
<stop offset="1" stop-color="#E2D4F7"/>
</linearGradient>
<linearGradient id="paint17_linear_36_112" x1="40.7554" y1="4.00458" x2="40.7554" y2="10.9003" gradientUnits="userSpaceOnUse">
<stop stop-color="#925FE2"/>
<stop offset="1" stop-color="#DFE7F5"/>
</linearGradient>
<linearGradient id="paint18_linear_36_112" x1="40.7554" y1="1.5121" x2="42.1366" y2="15.1225" gradientUnits="userSpaceOnUse">
<stop stop-color="#925FE2"/>
<stop offset="1" stop-color="#E2D4F7"/>
</linearGradient>
</defs>
</svg>
