<svg width="55" height="56" viewBox="0 0 55 56" fill="none" xmlns="http://www.w3.org/2000/svg">
<path d="M54.0707 25.4454L50.5968 21.9715C50.5162 21.8908 50.4204 21.8268 50.3151 21.7832C50.2097 21.7395 50.0968 21.717 49.9827 21.717C49.8687 21.717 49.7558 21.7395 49.6504 21.7832C49.545 21.8268 49.4493 21.8908 49.3687 21.9715L45.8947 25.4454C45.8141 25.5261 45.7501 25.6218 45.7064 25.7271C45.6628 25.8325 45.6403 25.9454 45.6403 26.0595V34.7444C45.6403 34.8584 45.6627 34.9714 45.7064 35.0768C45.75 35.1821 45.814 35.2779 45.8946 35.3585C45.9753 35.4392 46.071 35.5032 46.1764 35.5468C46.2818 35.5904 46.3947 35.6129 46.5088 35.6129H53.4567C53.5708 35.6129 53.6837 35.5904 53.7891 35.5468C53.8945 35.5032 53.9903 35.4392 54.0709 35.3585C54.1516 35.2779 54.2155 35.1821 54.2592 35.0768C54.3028 34.9714 54.3252 34.8584 54.3252 34.7444V26.0595C54.3252 25.9454 54.3028 25.8325 54.2591 25.7271C54.2154 25.6218 54.1514 25.5261 54.0707 25.4454Z" fill="white"/>
<path d="M38.6924 14.7691H12.6377C12.5237 14.7691 12.4107 14.7915 12.3053 14.8352C12.1999 14.8788 12.1042 14.9428 12.0235 15.0234C11.9429 15.1041 11.8789 15.1998 11.8353 15.3052C11.7916 15.4106 11.7692 15.5235 11.7692 15.6376V28.6649C11.7692 28.8302 11.8163 28.9921 11.9051 29.1315C11.9939 29.271 12.1207 29.3821 12.2705 29.452L25.2978 35.5314C25.4128 35.5851 25.5382 35.6129 25.6651 35.6129C25.792 35.6129 25.9173 35.5851 26.0323 35.5314L39.0596 29.452C39.2094 29.3821 39.3362 29.271 39.425 29.1315C39.5138 28.9921 39.5609 28.8302 39.5609 28.6649V15.6376C39.5609 15.5235 39.5385 15.4106 39.4948 15.3052C39.4512 15.1998 39.3872 15.1041 39.3066 15.0234C39.2259 14.9428 39.1302 14.8788 39.0248 14.8352C38.9194 14.7915 38.8065 14.7691 38.6924 14.7691Z" fill="white"/>
<path d="M38.6924 14.7691H12.6377C12.5237 14.7691 12.4107 14.7915 12.3053 14.8352C12.1999 14.8788 12.1042 14.9428 12.0235 15.0234C11.9429 15.1041 11.8789 15.1998 11.8353 15.3052C11.7916 15.4106 11.7692 15.5235 11.7692 15.6376V24.0075L25.2978 30.3205C25.4128 30.3741 25.5382 30.4019 25.6651 30.4019C25.792 30.4019 25.9173 30.3741 26.0323 30.3205L39.5609 24.0074V15.6376C39.5609 15.5235 39.5385 15.4106 39.4948 15.3052C39.4512 15.1998 39.3872 15.1041 39.3066 15.0234C39.2259 14.9428 39.1302 14.8788 39.0248 14.8352C38.9194 14.7915 38.8065 14.7691 38.6924 14.7691Z" fill="white"/>
<path d="M50.3484 11.3757L26.0307 0.0853651C25.9161 0.0325612 25.7914 0.00521851 25.6651 0.00521851C25.5389 0.00521851 25.4142 0.0325612 25.2996 0.0853651L0.981888 11.3757C0.831666 11.4455 0.704506 11.5567 0.615397 11.6963C0.526288 11.8359 0.478943 11.998 0.478943 12.1636C0.478943 12.3293 0.526288 12.4914 0.615397 12.631C0.704506 12.7706 0.831666 12.8818 0.981888 12.9516L25.2996 24.2419C25.4142 24.295 25.5389 24.3225 25.6651 24.3225C25.7914 24.3225 25.9161 24.295 26.0307 24.2419L50.3484 12.9516C50.4986 12.8818 50.6258 12.7706 50.7149 12.631C50.804 12.4914 50.8513 12.3293 50.8513 12.1636C50.8513 11.998 50.804 11.8359 50.7149 11.6963C50.6258 11.5567 50.4986 11.4455 50.3484 11.3757Z" fill="white"/>
<path d="M49.9828 19.9801C49.8687 19.9801 49.7558 19.9576 49.6504 19.914C49.545 19.8704 49.4492 19.8064 49.3686 19.7258C49.2879 19.6451 49.224 19.5493 49.1803 19.444C49.1367 19.3386 49.1142 19.2256 49.1143 19.1116V13.0321H25.6651C25.4347 13.0321 25.2138 12.9406 25.0509 12.7778C24.8881 12.6149 24.7966 12.394 24.7966 12.1637C24.7966 11.9333 24.8881 11.7124 25.0509 11.5495C25.2138 11.3867 25.4347 11.2952 25.6651 11.2952H49.9828C50.0968 11.2951 50.2098 11.3176 50.3152 11.3612C50.4205 11.4049 50.5163 11.4688 50.5969 11.5495C50.6776 11.6301 50.7416 11.7259 50.7852 11.8313C50.8288 11.9366 50.8513 12.0496 50.8513 12.1637V19.1116C50.8513 19.2256 50.8288 19.3386 50.7852 19.444C50.7416 19.5493 50.6776 19.6451 50.5969 19.7258C50.5163 19.8064 50.4205 19.8704 50.3152 19.914C50.2098 19.9576 50.0968 19.9801 49.9828 19.9801Z" fill="white"/>
<path d="M49.9827 25.191C51.9014 25.191 53.4567 23.6356 53.4567 21.717C53.4567 19.7984 51.9014 18.2431 49.9827 18.2431C48.0641 18.2431 46.5088 19.7984 46.5088 21.717C46.5088 23.6356 48.0641 25.191 49.9827 25.191Z" fill="white"/>
<path d="M42.8377 52.0836C41.6744 51.7664 40.4294 48.9108 40.4294 45.1663C40.4294 41.4217 41.6744 38.5661 42.8377 38.2489C43.0514 38.1905 43.2348 38.0527 43.3503 37.8637C43.4657 37.6746 43.5046 37.4486 43.459 37.2318C43.4133 37.015 43.2865 36.8239 43.1046 36.6975C42.9227 36.571 42.6993 36.5189 42.4802 36.5517L25.6651 39.0775L8.84443 36.5509L8.41867 36.4898C8.37779 36.4841 8.33655 36.4812 8.29527 36.4814C5.81956 36.4814 3.95282 40.2148 3.95282 45.1663C3.95282 50.1177 5.81956 53.8512 8.29527 53.8512C8.33655 53.8513 8.37779 53.8484 8.41867 53.8427L25.6651 51.255L42.4802 53.7808C42.6993 53.8136 42.9226 53.7615 43.1046 53.6351C43.2865 53.5087 43.4133 53.3175 43.4589 53.1008C43.5046 52.884 43.4657 52.6579 43.3502 52.4689C43.2347 52.2798 43.0514 52.142 42.8377 52.0836Z" fill="white"/>
<path d="M29.1392 37.3499H22.1913C21.7307 37.3504 21.2892 37.5336 20.9636 37.8592C20.638 38.1848 20.4548 38.6263 20.4543 39.0868V54.7196C20.4543 54.8616 20.4891 55.0014 20.5556 55.1267C20.6222 55.2521 20.7184 55.3593 20.836 55.4389C20.9535 55.5185 21.0887 55.568 21.2299 55.5833C21.371 55.5985 21.5137 55.5789 21.6455 55.5262L25.6652 53.9182L29.685 55.5262C29.8168 55.5789 29.9595 55.5985 30.1006 55.5833C30.2417 55.568 30.377 55.5185 30.4945 55.4389C30.612 55.3593 30.7083 55.2521 30.7748 55.1267C30.8413 55.0014 30.8761 54.8616 30.8762 54.7196V39.0868C30.8756 38.6263 30.6925 38.1848 30.3668 37.8592C30.0412 37.5336 29.5997 37.3504 29.1392 37.3499Z" fill="white"/>
<path d="M43.035 36.4814C42.9937 36.4812 42.9525 36.4841 42.9116 36.4898L42.4859 36.5509C42.4504 36.5561 42.4153 36.5635 42.3807 36.573C40.209 37.1658 38.6926 40.6991 38.6926 45.1663C38.6926 49.6334 40.209 53.1667 42.3807 53.7596C42.4153 53.769 42.4504 53.7764 42.4859 53.7816L42.9116 53.8427C42.9525 53.8484 42.9937 53.8513 43.035 53.8512C45.5107 53.8512 47.3775 50.1177 47.3775 45.1663C47.3775 40.2148 45.5107 36.4814 43.035 36.4814Z" fill="white"/>
<path d="M41.298 44.2978H38.7129C38.7 44.5831 38.6926 44.8723 38.6926 45.1662C38.6926 49.6334 40.209 53.1667 42.3807 53.7595C42.4153 53.769 42.4504 53.7764 42.4859 53.7816L42.9116 53.8427C42.9525 53.8484 42.9937 53.8513 43.035 53.8511C43.3319 53.8501 43.6261 53.7952 43.9035 53.6894V46.9032C43.9027 46.2124 43.628 45.5502 43.1395 45.0617C42.6511 44.5733 41.9888 44.2985 41.298 44.2978Z" fill="white"/>
</svg>
