<svg width="77" height="74" viewBox="0 0 77 74" fill="none" xmlns="http://www.w3.org/2000/svg">
<g filter="url(#filter0_d_36_140)">
<path d="M48.5577 68.6401V63.9144C58.2373 66.2273 63.9517 65.9851 74.4119 63.9122V68.6329C74.4119 68.8546 74.2538 69.0476 74.0364 69.0939C63.981 71.2351 58.358 71.2683 48.925 69.0991C48.7113 69.05 48.5577 68.8588 48.5577 68.6401Z" fill="url(#paint0_linear_36_140)" stroke="url(#paint1_linear_36_140)" stroke-width="0.0857294"/>
<g filter="url(#filter1_d_36_140)">
<ellipse cx="61.4847" cy="63.736" rx="12.97" ry="2.36843" fill="url(#paint2_linear_36_140)"/>
<path d="M74.4118 63.736C74.4118 63.8824 74.3307 64.0314 74.1626 64.1814C73.9947 64.3312 73.7446 64.4778 73.4184 64.6186C72.7665 64.9001 71.8204 65.1545 70.6481 65.3686C68.3043 65.7966 65.0645 66.0616 61.4847 66.0616C57.9049 66.0616 54.6651 65.7966 52.3212 65.3686C51.149 65.1545 50.2029 64.9001 49.551 64.6186C49.2248 64.4778 48.9747 64.3312 48.8068 64.1814C48.6387 64.0314 48.5576 63.8824 48.5576 63.736C48.5576 63.5896 48.6387 63.4407 48.8068 63.2907C48.9747 63.1409 49.2248 62.9943 49.551 62.8535C50.2029 62.572 51.149 62.3175 52.3212 62.1035C54.6651 61.6755 57.9049 61.4105 61.4847 61.4105C65.0645 61.4105 68.3043 61.6755 70.6481 62.1035C71.8204 62.3175 72.7665 62.572 73.4184 62.8535C73.7446 62.9943 73.9947 63.1409 74.1626 63.2907C74.3307 63.4407 74.4118 63.5896 74.4118 63.736Z" stroke="white" stroke-opacity="0.2" stroke-width="0.0857294"/>
</g>
</g>
<g filter="url(#filter2_d_36_140)">
<path d="M19.223 68.6401V63.9144C28.9025 66.2273 34.617 65.9851 45.0772 63.9122V68.6329C45.0772 68.8546 44.9191 69.0476 44.7017 69.0939C34.6462 71.2351 29.0233 71.2683 19.5903 69.0991C19.3766 69.05 19.223 68.8588 19.223 68.6401Z" fill="url(#paint3_linear_36_140)" stroke="url(#paint4_linear_36_140)" stroke-width="0.0857294"/>
<g filter="url(#filter3_d_36_140)">
<ellipse cx="32.1502" cy="63.736" rx="12.97" ry="2.36843" fill="url(#paint5_linear_36_140)"/>
<path d="M45.0773 63.736C45.0773 63.8824 44.9962 64.0314 44.8281 64.1814C44.6602 64.3312 44.4101 64.4778 44.0839 64.6186C43.432 64.9001 42.4859 65.1545 41.3136 65.3686C38.9698 65.7966 35.73 66.0616 32.1502 66.0616C28.5704 66.0616 25.3306 65.7966 22.9868 65.3686C21.8145 65.1545 20.8684 64.9001 20.2165 64.6186C19.8903 64.4778 19.6402 64.3312 19.4723 64.1814C19.3042 64.0314 19.2231 63.8824 19.2231 63.736C19.2231 63.5896 19.3042 63.4407 19.4723 63.2907C19.6402 63.1409 19.8903 62.9943 20.2165 62.8535C20.8684 62.572 21.8145 62.3175 22.9868 62.1035C25.3306 61.6755 28.5704 61.4105 32.1502 61.4105C35.73 61.4105 38.9698 61.6755 41.3136 62.1035C42.4859 62.3175 43.432 62.572 44.0839 62.8535C44.4101 62.9943 44.6602 63.1409 44.8281 63.2907C44.9962 63.4407 45.0773 63.5896 45.0773 63.736Z" stroke="white" stroke-opacity="0.2" stroke-width="0.0857294"/>
</g>
</g>
<g filter="url(#filter4_d_36_140)">
<path d="M48.5577 61.14V56.4143C58.2373 58.7272 63.9517 58.485 74.4119 56.4122V61.1328C74.4119 61.3545 74.2538 61.5475 74.0364 61.5938C63.981 63.735 58.358 63.7682 48.925 61.5991C48.7113 61.5499 48.5577 61.3587 48.5577 61.14Z" fill="url(#paint6_linear_36_140)" stroke="url(#paint7_linear_36_140)" stroke-width="0.0857294"/>
<g filter="url(#filter5_d_36_140)">
<ellipse cx="61.4847" cy="56.236" rx="12.97" ry="2.36843" fill="url(#paint8_linear_36_140)"/>
<path d="M74.4118 56.236C74.4118 56.3824 74.3307 56.5313 74.1626 56.6813C73.9947 56.8312 73.7446 56.9777 73.4184 57.1185C72.7665 57.4 71.8204 57.6545 70.6481 57.8685C68.3043 58.2966 65.0645 58.5615 61.4847 58.5615C57.9049 58.5615 54.6651 58.2966 52.3212 57.8685C51.149 57.6545 50.2029 57.4 49.551 57.1185C49.2248 56.9777 48.9747 56.8312 48.8068 56.6813C48.6387 56.5313 48.5576 56.3824 48.5576 56.236C48.5576 56.0896 48.6387 55.9406 48.8068 55.7906C48.9747 55.6408 49.2248 55.4942 49.551 55.3534C50.2029 55.072 51.149 54.8175 52.3212 54.6034C54.6651 54.1754 57.9049 53.9104 61.4847 53.9104C65.0645 53.9104 68.3043 54.1754 70.6481 54.6034C71.8204 54.8175 72.7665 55.072 73.4184 55.3534C73.7446 55.4942 73.9947 55.6408 74.1626 55.7906C74.3307 55.9406 74.4118 56.0896 74.4118 56.236Z" stroke="white" stroke-opacity="0.2" stroke-width="0.0857294"/>
</g>
</g>
<g filter="url(#filter6_d_36_140)">
<path d="M19.223 61.14V56.4143C28.9025 58.7272 34.617 58.485 45.0772 56.4122V61.1328C45.0772 61.3545 44.9191 61.5475 44.7017 61.5938C34.6462 63.735 29.0233 63.7682 19.5903 61.5991C19.3766 61.5499 19.223 61.3587 19.223 61.14Z" fill="url(#paint9_linear_36_140)" stroke="url(#paint10_linear_36_140)" stroke-width="0.0857294"/>
<g filter="url(#filter7_d_36_140)">
<ellipse cx="32.1502" cy="56.236" rx="12.97" ry="2.36843" fill="url(#paint11_linear_36_140)"/>
<path d="M45.0773 56.236C45.0773 56.3824 44.9962 56.5313 44.8281 56.6813C44.6602 56.8312 44.4101 56.9777 44.0839 57.1185C43.432 57.4 42.4859 57.6545 41.3136 57.8685C38.9698 58.2966 35.73 58.5615 32.1502 58.5615C28.5704 58.5615 25.3306 58.2966 22.9868 57.8685C21.8145 57.6545 20.8684 57.4 20.2165 57.1185C19.8903 56.9777 19.6402 56.8312 19.4723 56.6813C19.3042 56.5313 19.2231 56.3824 19.2231 56.236C19.2231 56.0896 19.3042 55.9406 19.4723 55.7906C19.6402 55.6408 19.8903 55.4942 20.2165 55.3534C20.8684 55.072 21.8145 54.8175 22.9868 54.6034C25.3306 54.1754 28.5704 53.9104 32.1502 53.9104C35.73 53.9104 38.9698 54.1754 41.3136 54.6034C42.4859 54.8175 43.432 55.072 44.0839 55.3534C44.4101 55.4942 44.6602 55.6408 44.8281 55.7906C44.9962 55.9406 45.0773 56.0896 45.0773 56.236Z" stroke="white" stroke-opacity="0.2" stroke-width="0.0857294"/>
</g>
<g filter="url(#filter8_f_36_140)">
<ellipse cx="32.336" cy="56.3318" rx="6.9643" ry="0.535716" fill="#925FE2"/>
</g>
</g>
<g filter="url(#filter9_d_36_140)">
<path d="M48.5464 53.6627V48.937C58.226 51.2499 63.9404 51.0078 74.4006 48.9349V53.6555C74.4006 53.8772 74.2425 54.0702 74.0251 54.1165C63.9697 56.2577 58.3467 56.2909 48.9137 54.1218C48.7 54.0726 48.5464 53.8815 48.5464 53.6627Z" fill="url(#paint12_linear_36_140)" stroke="url(#paint13_linear_36_140)" stroke-width="0.0857294"/>
<g filter="url(#filter10_d_36_140)">
<ellipse cx="61.4735" cy="48.7586" rx="12.97" ry="2.36843" fill="url(#paint14_linear_36_140)"/>
<path d="M74.4006 48.7586C74.4006 48.905 74.3195 49.0539 74.1515 49.2039C73.9835 49.3538 73.7334 49.5003 73.4073 49.6411C72.7553 49.9226 71.8093 50.1771 70.637 50.3911C68.2931 50.8191 65.0533 51.0841 61.4735 51.0841C57.8938 51.0841 54.654 50.8191 52.3101 50.3911C51.1378 50.1771 50.1918 49.9226 49.5398 49.6411C49.2137 49.5003 48.9635 49.3538 48.7956 49.2039C48.6275 49.0539 48.5465 48.905 48.5465 48.7586C48.5465 48.6122 48.6275 48.4632 48.7956 48.3132C48.9635 48.1634 49.2137 48.0168 49.5398 47.876C50.1918 47.5945 51.1378 47.3401 52.3101 47.126C54.654 46.698 57.8938 46.433 61.4735 46.433C65.0533 46.433 68.2931 46.698 70.637 47.126C71.8093 47.3401 72.7553 47.5945 73.4073 47.876C73.7334 48.0168 73.9835 48.1634 74.1515 48.3132C74.3195 48.4632 74.4006 48.6122 74.4006 48.7586Z" stroke="white" stroke-opacity="0.2" stroke-width="0.0857294"/>
</g>
</g>
<g filter="url(#filter11_d_36_140)">
<path d="M48.5464 46.2078V41.4821C58.226 43.795 63.9404 43.5528 74.4006 41.4799V46.2006C74.4006 46.4223 74.2425 46.6153 74.0251 46.6616C63.9697 48.8028 58.3467 48.836 48.9137 46.6668C48.7 46.6177 48.5464 46.4265 48.5464 46.2078Z" fill="url(#paint15_linear_36_140)" stroke="url(#paint16_linear_36_140)" stroke-width="0.0857294"/>
<g filter="url(#filter12_d_36_140)">
<ellipse cx="61.4735" cy="41.3037" rx="12.97" ry="2.36843" fill="url(#paint17_linear_36_140)"/>
<path d="M74.4006 41.3037C74.4006 41.4501 74.3195 41.5991 74.1515 41.7491C73.9835 41.8989 73.7334 42.0455 73.4073 42.1863C72.7553 42.4677 71.8093 42.7222 70.637 42.9363C68.2931 43.3643 65.0533 43.6293 61.4735 43.6293C57.8938 43.6293 54.654 43.3643 52.3101 42.9363C51.1378 42.7222 50.1918 42.4677 49.5398 42.1863C49.2137 42.0455 48.9635 41.8989 48.7956 41.7491C48.6275 41.5991 48.5465 41.4501 48.5465 41.3037C48.5465 41.1573 48.6275 41.0084 48.7956 40.8584C48.9635 40.7085 49.2137 40.562 49.5398 40.4212C50.1918 40.1397 51.1378 39.8852 52.3101 39.6712C54.654 39.2431 57.8938 38.9782 61.4735 38.9782C65.0533 38.9782 68.2931 39.2431 70.637 39.6712C71.8093 39.8852 72.7553 40.1397 73.4073 40.4212C73.7334 40.562 73.9835 40.7085 74.1515 40.8584C74.3195 41.0084 74.4006 41.1573 74.4006 41.3037Z" stroke="white" stroke-opacity="0.2" stroke-width="0.0857294"/>
</g>
</g>
<g filter="url(#filter13_d_36_140)">
<path d="M17.7898 21.1672C14.9645 21.8967 12.9074 21.8876 9.70283 21.3536C9.49274 21.3186 9.30023 21.4799 9.30023 21.6929V47.9219C9.30023 48.0983 9.43409 48.2461 9.60974 48.2623C12.3548 48.5158 14.4974 48.4885 17.9529 48.3084C18.8722 48.2605 19.7908 48.1359 20.6865 47.9236C29.2446 45.8954 34.1564 43.3154 41.0703 37.1798C42.0634 36.2984 43.1956 35.5581 44.4808 35.2245C46.7711 34.6301 48.6874 34.6972 51.6933 35.6147C52.0283 35.7169 52.3718 35.4696 52.3718 35.1195V8.9127C52.3718 8.64173 52.1581 8.41688 51.8876 8.40007C43.6685 7.88927 40.1891 8.46971 34.1058 10.4606C28.3294 12.5611 25.4682 14.6463 20.4742 19.5838C19.7233 20.3262 18.8122 20.9032 17.7898 21.1672Z" fill="url(#paint18_linear_36_140)"/>
<path d="M17.7898 21.1672C14.9645 21.8967 12.9074 21.8876 9.70283 21.3536C9.49274 21.3186 9.30023 21.4799 9.30023 21.6929V47.9219C9.30023 48.0983 9.43409 48.2461 9.60974 48.2623C12.3548 48.5158 14.4974 48.4885 17.9529 48.3084C18.8722 48.2605 19.7908 48.1359 20.6865 47.9236C29.2446 45.8954 34.1564 43.3154 41.0703 37.1798C42.0634 36.2984 43.1956 35.5581 44.4808 35.2245C46.7711 34.6301 48.6874 34.6972 51.6933 35.6147C52.0283 35.7169 52.3718 35.4696 52.3718 35.1195V8.9127C52.3718 8.64173 52.1581 8.41688 51.8876 8.40007C43.6685 7.88927 40.1891 8.46971 34.1058 10.4606C28.3294 12.5611 25.4682 14.6463 20.4742 19.5838C19.7233 20.3262 18.8122 20.9032 17.7898 21.1672Z" stroke="url(#paint19_linear_36_140)" stroke-width="0.171459"/>
</g>
<g filter="url(#filter14_d_36_140)">
<circle cx="47.4108" cy="29.5158" r="1.69129" fill="url(#paint20_linear_36_140)"/>
</g>
<g filter="url(#filter15_d_36_140)">
<circle cx="14.0357" cy="26.8097" r="1.69129" fill="url(#paint21_linear_36_140)"/>
</g>
<g filter="url(#filter16_dd_36_140)">
<circle cx="30.7234" cy="28.1627" r="7.55443" fill="url(#paint22_linear_36_140)" shape-rendering="crispEdges"/>
</g>
<g filter="url(#filter17_d_36_140)">
<path d="M28.3409 24.5757C28.6234 24.2529 28.8885 23.9755 29.1988 23.674C29.5462 23.3365 30.0961 23.3363 30.4561 23.6603C30.7358 23.912 30.7837 24.3382 30.5483 24.6319C30.3997 24.8172 30.2579 24.9776 30.0992 25.1333C29.799 25.4278 29.5957 25.8154 29.5957 26.2359V26.2854C29.5957 26.6698 29.8299 27.0179 30.1908 27.1504C30.2541 27.1737 30.3155 27.1958 30.3754 27.217C31.2595 27.5289 32.2004 27.7866 32.8798 28.4326C32.9673 28.5159 33.0502 28.6021 33.1307 28.6935C33.5117 29.1261 33.6548 29.7095 33.6548 30.2859C33.6548 30.9579 33.4597 31.628 33.0116 32.1288C32.7112 32.4646 32.4109 32.7356 32.0416 33.0133C31.6861 33.2806 31.1855 33.2003 30.9039 32.856C30.6127 32.5002 30.6501 31.9789 30.989 31.6682L31.404 31.2878C31.6216 31.0883 31.7878 30.8291 31.8123 30.5349C31.8137 30.5183 31.8149 30.5016 31.8159 30.485C31.8491 29.9468 31.4402 29.5028 30.9501 29.278C30.3013 28.9805 29.7431 28.6987 29.1085 28.3499C28.2751 27.8918 27.7133 27.0921 27.7415 26.1415C27.758 25.5851 27.9743 24.9946 28.3409 24.5757Z" fill="url(#paint23_linear_36_140)"/>
<path d="M28.3732 24.6039C28.6548 24.282 28.9191 24.0055 29.2287 23.7048C29.5592 23.3836 30.0835 23.3826 30.4274 23.6921C30.6914 23.9297 30.7351 24.3303 30.5148 24.605C30.3671 24.7894 30.2264 24.9485 30.0692 25.1027C29.7629 25.4032 29.5528 25.8012 29.5528 26.2359V26.2854C29.5528 26.6871 29.7976 27.0517 30.176 27.1906C30.2394 27.2139 30.301 27.2361 30.3612 27.2574C30.48 27.2993 30.5996 27.3402 30.7191 27.3811C31.494 27.646 32.2689 27.9109 32.8502 28.4637C32.9368 28.5461 33.0189 28.6314 33.0986 28.7218C33.4703 29.1439 33.6119 29.7157 33.6119 30.2859C33.6119 30.9501 33.419 31.6091 32.9797 32.1002C32.6813 32.4337 32.3831 32.7028 32.0158 32.9791C31.6803 33.2314 31.2053 33.1568 30.937 32.8289C30.6603 32.4906 30.6958 31.9951 31.018 31.6998L31.4329 31.3194C31.6555 31.1153 31.8293 30.8468 31.855 30.5385C31.8565 30.5215 31.8577 30.5046 31.8587 30.4877C31.8934 29.9244 31.4661 29.4675 30.9679 29.2391C30.3201 28.942 29.7628 28.6607 29.1292 28.3124C28.3067 27.8603 27.7568 27.074 27.7844 26.1428C27.8006 25.5955 28.0136 25.0147 28.3732 24.6039Z" stroke="white" stroke-opacity="0.33" stroke-width="0.0857294"/>
<rect x="31.5125" y="21.9614" width="1.80404" height="4.0591" rx="0.902022" fill="url(#paint24_linear_36_140)"/>
<rect x="31.5554" y="22.0042" width="1.71831" height="3.97337" rx="0.859157" stroke="white" stroke-opacity="0.33" stroke-width="0.0857294"/>
<rect x="28.1299" y="30.5306" width="1.80404" height="4.0591" rx="0.902022" fill="url(#paint25_linear_36_140)"/>
<rect x="28.1728" y="30.5735" width="1.71831" height="3.97337" rx="0.859157" stroke="white" stroke-opacity="0.33" stroke-width="0.0857294"/>
</g>
<defs>
<filter id="filter0_d_36_140" x="47.8289" y="60.8532" width="29.0263" height="12.4745" filterUnits="userSpaceOnUse" color-interpolation-filters="sRGB">
<feFlood flood-opacity="0" result="BackgroundImageFix"/>
<feColorMatrix in="SourceAlpha" type="matrix" values="0 0 0 0 0 0 0 0 0 0 0 0 0 0 0 0 0 0 127 0" result="hardAlpha"/>
<feOffset dx="0.857294" dy="1.02875"/>
<feGaussianBlur stdDeviation="0.771564"/>
<feComposite in2="hardAlpha" operator="out"/>
<feColorMatrix type="matrix" values="0 0 0 0 0.228976 0 0 0 0 0.34229 0 0 0 0 0.504167 0 0 0 0.15 0"/>
<feBlend mode="normal" in2="BackgroundImageFix" result="effect1_dropShadow_36_140"/>
<feBlend mode="normal" in="SourceGraphic" in2="effect1_dropShadow_36_140" result="shape"/>
</filter>
<filter id="filter1_d_36_140" x="47.1431" y="60.5103" width="28.6833" height="7.4802" filterUnits="userSpaceOnUse" color-interpolation-filters="sRGB">
<feFlood flood-opacity="0" result="BackgroundImageFix"/>
<feColorMatrix in="SourceAlpha" type="matrix" values="0 0 0 0 0 0 0 0 0 0 0 0 0 0 0 0 0 0 127 0" result="hardAlpha"/>
<feOffset dy="0.514376"/>
<feGaussianBlur stdDeviation="0.685835"/>
<feComposite in2="hardAlpha" operator="out"/>
<feColorMatrix type="matrix" values="0 0 0 0 0.6825 0 0 0 0 0.782885 0 0 0 0 0.9 0 0 0 0.5 0"/>
<feBlend mode="normal" in2="BackgroundImageFix" result="effect1_dropShadow_36_140"/>
<feBlend mode="normal" in="SourceGraphic" in2="effect1_dropShadow_36_140" result="shape"/>
</filter>
<filter id="filter2_d_36_140" x="18.4943" y="60.8532" width="29.0263" height="12.4745" filterUnits="userSpaceOnUse" color-interpolation-filters="sRGB">
<feFlood flood-opacity="0" result="BackgroundImageFix"/>
<feColorMatrix in="SourceAlpha" type="matrix" values="0 0 0 0 0 0 0 0 0 0 0 0 0 0 0 0 0 0 127 0" result="hardAlpha"/>
<feOffset dx="0.857294" dy="1.02875"/>
<feGaussianBlur stdDeviation="0.771564"/>
<feComposite in2="hardAlpha" operator="out"/>
<feColorMatrix type="matrix" values="0 0 0 0 0.228976 0 0 0 0 0.34229 0 0 0 0 0.504167 0 0 0 0.15 0"/>
<feBlend mode="normal" in2="BackgroundImageFix" result="effect1_dropShadow_36_140"/>
<feBlend mode="normal" in="SourceGraphic" in2="effect1_dropShadow_36_140" result="shape"/>
</filter>
<filter id="filter3_d_36_140" x="17.8086" y="60.5103" width="28.6833" height="7.4802" filterUnits="userSpaceOnUse" color-interpolation-filters="sRGB">
<feFlood flood-opacity="0" result="BackgroundImageFix"/>
<feColorMatrix in="SourceAlpha" type="matrix" values="0 0 0 0 0 0 0 0 0 0 0 0 0 0 0 0 0 0 127 0" result="hardAlpha"/>
<feOffset dy="0.514376"/>
<feGaussianBlur stdDeviation="0.685835"/>
<feComposite in2="hardAlpha" operator="out"/>
<feColorMatrix type="matrix" values="0 0 0 0 0.6825 0 0 0 0 0.782885 0 0 0 0 0.9 0 0 0 0.5 0"/>
<feBlend mode="normal" in2="BackgroundImageFix" result="effect1_dropShadow_36_140"/>
<feBlend mode="normal" in="SourceGraphic" in2="effect1_dropShadow_36_140" result="shape"/>
</filter>
<filter id="filter4_d_36_140" x="47.8289" y="53.3532" width="29.0263" height="12.4744" filterUnits="userSpaceOnUse" color-interpolation-filters="sRGB">
<feFlood flood-opacity="0" result="BackgroundImageFix"/>
<feColorMatrix in="SourceAlpha" type="matrix" values="0 0 0 0 0 0 0 0 0 0 0 0 0 0 0 0 0 0 127 0" result="hardAlpha"/>
<feOffset dx="0.857294" dy="1.02875"/>
<feGaussianBlur stdDeviation="0.771564"/>
<feComposite in2="hardAlpha" operator="out"/>
<feColorMatrix type="matrix" values="0 0 0 0 0.228976 0 0 0 0 0.34229 0 0 0 0 0.504167 0 0 0 0.15 0"/>
<feBlend mode="normal" in2="BackgroundImageFix" result="effect1_dropShadow_36_140"/>
<feBlend mode="normal" in="SourceGraphic" in2="effect1_dropShadow_36_140" result="shape"/>
</filter>
<filter id="filter5_d_36_140" x="47.1431" y="53.0103" width="28.6833" height="7.4802" filterUnits="userSpaceOnUse" color-interpolation-filters="sRGB">
<feFlood flood-opacity="0" result="BackgroundImageFix"/>
<feColorMatrix in="SourceAlpha" type="matrix" values="0 0 0 0 0 0 0 0 0 0 0 0 0 0 0 0 0 0 127 0" result="hardAlpha"/>
<feOffset dy="0.514376"/>
<feGaussianBlur stdDeviation="0.685835"/>
<feComposite in2="hardAlpha" operator="out"/>
<feColorMatrix type="matrix" values="0 0 0 0 0.6825 0 0 0 0 0.782885 0 0 0 0 0.9 0 0 0 0.5 0"/>
<feBlend mode="normal" in2="BackgroundImageFix" result="effect1_dropShadow_36_140"/>
<feBlend mode="normal" in="SourceGraphic" in2="effect1_dropShadow_36_140" result="shape"/>
</filter>
<filter id="filter6_d_36_140" x="18.4943" y="53.3532" width="29.0263" height="12.4744" filterUnits="userSpaceOnUse" color-interpolation-filters="sRGB">
<feFlood flood-opacity="0" result="BackgroundImageFix"/>
<feColorMatrix in="SourceAlpha" type="matrix" values="0 0 0 0 0 0 0 0 0 0 0 0 0 0 0 0 0 0 127 0" result="hardAlpha"/>
<feOffset dx="0.857294" dy="1.02875"/>
<feGaussianBlur stdDeviation="0.771564"/>
<feComposite in2="hardAlpha" operator="out"/>
<feColorMatrix type="matrix" values="0 0 0 0 0.228976 0 0 0 0 0.34229 0 0 0 0 0.504167 0 0 0 0.15 0"/>
<feBlend mode="normal" in2="BackgroundImageFix" result="effect1_dropShadow_36_140"/>
<feBlend mode="normal" in="SourceGraphic" in2="effect1_dropShadow_36_140" result="shape"/>
</filter>
<filter id="filter7_d_36_140" x="17.8086" y="53.0103" width="28.6833" height="7.4802" filterUnits="userSpaceOnUse" color-interpolation-filters="sRGB">
<feFlood flood-opacity="0" result="BackgroundImageFix"/>
<feColorMatrix in="SourceAlpha" type="matrix" values="0 0 0 0 0 0 0 0 0 0 0 0 0 0 0 0 0 0 127 0" result="hardAlpha"/>
<feOffset dy="0.514376"/>
<feGaussianBlur stdDeviation="0.685835"/>
<feComposite in2="hardAlpha" operator="out"/>
<feColorMatrix type="matrix" values="0 0 0 0 0.6825 0 0 0 0 0.782885 0 0 0 0 0.9 0 0 0 0.5 0"/>
<feBlend mode="normal" in2="BackgroundImageFix" result="effect1_dropShadow_36_140"/>
<feBlend mode="normal" in="SourceGraphic" in2="effect1_dropShadow_36_140" result="shape"/>
</filter>
<filter id="filter8_f_36_140" x="21.9425" y="52.3669" width="20.787" height="7.92978" filterUnits="userSpaceOnUse" color-interpolation-filters="sRGB">
<feFlood flood-opacity="0" result="BackgroundImageFix"/>
<feBlend mode="normal" in="SourceGraphic" in2="BackgroundImageFix" result="shape"/>
<feGaussianBlur stdDeviation="1.71459" result="effect1_foregroundBlur_36_140"/>
</filter>
<filter id="filter9_d_36_140" x="47.8177" y="45.8758" width="29.0262" height="12.4746" filterUnits="userSpaceOnUse" color-interpolation-filters="sRGB">
<feFlood flood-opacity="0" result="BackgroundImageFix"/>
<feColorMatrix in="SourceAlpha" type="matrix" values="0 0 0 0 0 0 0 0 0 0 0 0 0 0 0 0 0 0 127 0" result="hardAlpha"/>
<feOffset dx="0.857294" dy="1.02875"/>
<feGaussianBlur stdDeviation="0.771564"/>
<feComposite in2="hardAlpha" operator="out"/>
<feColorMatrix type="matrix" values="0 0 0 0 0.228976 0 0 0 0 0.34229 0 0 0 0 0.504167 0 0 0 0.15 0"/>
<feBlend mode="normal" in2="BackgroundImageFix" result="effect1_dropShadow_36_140"/>
<feBlend mode="normal" in="SourceGraphic" in2="effect1_dropShadow_36_140" result="shape"/>
</filter>
<filter id="filter10_d_36_140" x="47.1319" y="45.5328" width="28.6833" height="7.4802" filterUnits="userSpaceOnUse" color-interpolation-filters="sRGB">
<feFlood flood-opacity="0" result="BackgroundImageFix"/>
<feColorMatrix in="SourceAlpha" type="matrix" values="0 0 0 0 0 0 0 0 0 0 0 0 0 0 0 0 0 0 127 0" result="hardAlpha"/>
<feOffset dy="0.514376"/>
<feGaussianBlur stdDeviation="0.685835"/>
<feComposite in2="hardAlpha" operator="out"/>
<feColorMatrix type="matrix" values="0 0 0 0 0.6825 0 0 0 0 0.782885 0 0 0 0 0.9 0 0 0 0.5 0"/>
<feBlend mode="normal" in2="BackgroundImageFix" result="effect1_dropShadow_36_140"/>
<feBlend mode="normal" in="SourceGraphic" in2="effect1_dropShadow_36_140" result="shape"/>
</filter>
<filter id="filter11_d_36_140" x="47.8177" y="38.4209" width="29.0262" height="12.4745" filterUnits="userSpaceOnUse" color-interpolation-filters="sRGB">
<feFlood flood-opacity="0" result="BackgroundImageFix"/>
<feColorMatrix in="SourceAlpha" type="matrix" values="0 0 0 0 0 0 0 0 0 0 0 0 0 0 0 0 0 0 127 0" result="hardAlpha"/>
<feOffset dx="0.857294" dy="1.02875"/>
<feGaussianBlur stdDeviation="0.771564"/>
<feComposite in2="hardAlpha" operator="out"/>
<feColorMatrix type="matrix" values="0 0 0 0 0.228976 0 0 0 0 0.34229 0 0 0 0 0.504167 0 0 0 0.15 0"/>
<feBlend mode="normal" in2="BackgroundImageFix" result="effect1_dropShadow_36_140"/>
<feBlend mode="normal" in="SourceGraphic" in2="effect1_dropShadow_36_140" result="shape"/>
</filter>
<filter id="filter12_d_36_140" x="47.1319" y="38.078" width="28.6833" height="7.4802" filterUnits="userSpaceOnUse" color-interpolation-filters="sRGB">
<feFlood flood-opacity="0" result="BackgroundImageFix"/>
<feColorMatrix in="SourceAlpha" type="matrix" values="0 0 0 0 0 0 0 0 0 0 0 0 0 0 0 0 0 0 127 0" result="hardAlpha"/>
<feOffset dy="0.514376"/>
<feGaussianBlur stdDeviation="0.685835"/>
<feComposite in2="hardAlpha" operator="out"/>
<feColorMatrix type="matrix" values="0 0 0 0 0.6825 0 0 0 0 0.782885 0 0 0 0 0.9 0 0 0 0.5 0"/>
<feBlend mode="normal" in2="BackgroundImageFix" result="effect1_dropShadow_36_140"/>
<feBlend mode="normal" in="SourceGraphic" in2="effect1_dropShadow_36_140" result="shape"/>
</filter>
<filter id="filter13_d_36_140" x="0.813029" y="0.251813" width="63.818" height="60.9699" filterUnits="userSpaceOnUse" color-interpolation-filters="sRGB">
<feFlood flood-opacity="0" result="BackgroundImageFix"/>
<feColorMatrix in="SourceAlpha" type="matrix" values="0 0 0 0 0 0 0 0 0 0 0 0 0 0 0 0 0 0 127 0" result="hardAlpha"/>
<feOffset dx="1.88605" dy="2.40042"/>
<feGaussianBlur stdDeviation="5.14376"/>
<feComposite in2="hardAlpha" operator="out"/>
<feColorMatrix type="matrix" values="0 0 0 0 0.386111 0 0 0 0 0.465605 0 0 0 0 0.579167 0 0 0 0.25 0"/>
<feBlend mode="normal" in2="BackgroundImageFix" result="effect1_dropShadow_36_140"/>
<feBlend mode="normal" in="SourceGraphic" in2="effect1_dropShadow_36_140" result="shape"/>
</filter>
<filter id="filter14_d_36_140" x="45.0337" y="27.4816" width="4.75425" height="4.75425" filterUnits="userSpaceOnUse" color-interpolation-filters="sRGB">
<feFlood flood-opacity="0" result="BackgroundImageFix"/>
<feColorMatrix in="SourceAlpha" type="matrix" values="0 0 0 0 0 0 0 0 0 0 0 0 0 0 0 0 0 0 127 0" result="hardAlpha"/>
<feOffset dy="0.342918"/>
<feGaussianBlur stdDeviation="0.342918"/>
<feComposite in2="hardAlpha" operator="out"/>
<feColorMatrix type="matrix" values="0 0 0 0 0 0 0 0 0 0 0 0 0 0 0 0 0 0 0.05 0"/>
<feBlend mode="normal" in2="BackgroundImageFix" result="effect1_dropShadow_36_140"/>
<feBlend mode="normal" in="SourceGraphic" in2="effect1_dropShadow_36_140" result="shape"/>
</filter>
<filter id="filter15_d_36_140" x="11.6586" y="24.7755" width="4.75425" height="4.75425" filterUnits="userSpaceOnUse" color-interpolation-filters="sRGB">
<feFlood flood-opacity="0" result="BackgroundImageFix"/>
<feColorMatrix in="SourceAlpha" type="matrix" values="0 0 0 0 0 0 0 0 0 0 0 0 0 0 0 0 0 0 127 0" result="hardAlpha"/>
<feOffset dy="0.342918"/>
<feGaussianBlur stdDeviation="0.342918"/>
<feComposite in2="hardAlpha" operator="out"/>
<feColorMatrix type="matrix" values="0 0 0 0 0 0 0 0 0 0 0 0 0 0 0 0 0 0 0.05 0"/>
<feBlend mode="normal" in2="BackgroundImageFix" result="effect1_dropShadow_36_140"/>
<feBlend mode="normal" in="SourceGraphic" in2="effect1_dropShadow_36_140" result="shape"/>
</filter>
<filter id="filter16_dd_36_140" x="19.7398" y="18.2079" width="21.2814" height="20.5956" filterUnits="userSpaceOnUse" color-interpolation-filters="sRGB">
<feFlood flood-opacity="0" result="BackgroundImageFix"/>
<feColorMatrix in="SourceAlpha" type="matrix" values="0 0 0 0 0 0 0 0 0 0 0 0 0 0 0 0 0 0 127 0" result="hardAlpha"/>
<feOffset dx="-1.71459" dy="-0.685835"/>
<feGaussianBlur stdDeviation="0.857294"/>
<feComposite in2="hardAlpha" operator="out"/>
<feColorMatrix type="matrix" values="0 0 0 0 1 0 0 0 0 1 0 0 0 0 1 0 0 0 0.5 0"/>
<feBlend mode="normal" in2="BackgroundImageFix" result="effect1_dropShadow_36_140"/>
<feColorMatrix in="SourceAlpha" type="matrix" values="0 0 0 0 0 0 0 0 0 0 0 0 0 0 0 0 0 0 127 0" result="hardAlpha"/>
<feOffset dx="0.342918" dy="0.685835"/>
<feGaussianBlur stdDeviation="1.20021"/>
<feComposite in2="hardAlpha" operator="out"/>
<feColorMatrix type="matrix" values="0 0 0 0 0.348958 0 0 0 0 0.462623 0 0 0 0 0.625 0 0 0 0.25 0"/>
<feBlend mode="normal" in2="effect1_dropShadow_36_140" result="effect2_dropShadow_36_140"/>
<feBlend mode="normal" in="SourceGraphic" in2="effect2_dropShadow_36_140" result="shape"/>
</filter>
<filter id="filter17_d_36_140" x="26.7118" y="21.6185" width="7.9718" height="14.6858" filterUnits="userSpaceOnUse" color-interpolation-filters="sRGB">
<feFlood flood-opacity="0" result="BackgroundImageFix"/>
<feColorMatrix in="SourceAlpha" type="matrix" values="0 0 0 0 0 0 0 0 0 0 0 0 0 0 0 0 0 0 127 0" result="hardAlpha"/>
<feOffset dy="0.685835"/>
<feGaussianBlur stdDeviation="0.514376"/>
<feComposite in2="hardAlpha" operator="out"/>
<feColorMatrix type="matrix" values="0 0 0 0 0 0 0 0 0 0 0 0 0 0 0 0 0 0 0.05 0"/>
<feBlend mode="normal" in2="BackgroundImageFix" result="effect1_dropShadow_36_140"/>
<feBlend mode="normal" in="SourceGraphic" in2="effect1_dropShadow_36_140" result="shape"/>
</filter>
<linearGradient id="paint0_linear_36_140" x1="61.4848" y1="63.86" x2="66.9488" y2="80.8647" gradientUnits="userSpaceOnUse">
<stop stop-color="#925FE2"/>
<stop offset="1" stop-color="#E2D4F7"/>
</linearGradient>
<linearGradient id="paint1_linear_36_140" x1="61.4848" y1="63.86" x2="61.4848" y2="70.7558" gradientUnits="userSpaceOnUse">
<stop stop-color="#925FE2"/>
<stop offset="1" stop-color="#DFE7F5"/>
</linearGradient>
<linearGradient id="paint2_linear_36_140" x1="61.4847" y1="61.3676" x2="64.197" y2="73.6559" gradientUnits="userSpaceOnUse">
<stop stop-color="#925FE2"/>
<stop offset="1" stop-color="#E2D4F7"/>
</linearGradient>
<linearGradient id="paint3_linear_36_140" x1="32.1501" y1="63.86" x2="36.4437" y2="78.3862" gradientUnits="userSpaceOnUse">
<stop stop-color="#925FE2"/>
<stop offset="1" stop-color="#E2D4F7"/>
</linearGradient>
<linearGradient id="paint4_linear_36_140" x1="32.1501" y1="63.86" x2="32.1501" y2="70.7558" gradientUnits="userSpaceOnUse">
<stop stop-color="#925FE2"/>
<stop offset="1" stop-color="#DFE7F5"/>
</linearGradient>
<linearGradient id="paint5_linear_36_140" x1="32.1502" y1="61.3676" x2="34.266" y2="71.7881" gradientUnits="userSpaceOnUse">
<stop stop-color="#925FE2"/>
<stop offset="1" stop-color="#E2D4F7"/>
</linearGradient>
<linearGradient id="paint6_linear_36_140" x1="61.4848" y1="56.36" x2="70.942" y2="67.6365" gradientUnits="userSpaceOnUse">
<stop stop-color="#925FE2"/>
<stop offset="1" stop-color="#E2D4F7"/>
</linearGradient>
<linearGradient id="paint7_linear_36_140" x1="61.4848" y1="56.36" x2="61.4848" y2="63.2557" gradientUnits="userSpaceOnUse">
<stop stop-color="#925FE2"/>
<stop offset="1" stop-color="#DFE7F5"/>
</linearGradient>
<linearGradient id="paint8_linear_36_140" x1="61.4847" y1="53.8676" x2="67.1918" y2="63.7741" gradientUnits="userSpaceOnUse">
<stop stop-color="#925FE2"/>
<stop offset="1" stop-color="#E2D4F7"/>
</linearGradient>
<linearGradient id="paint9_linear_36_140" x1="32.1501" y1="56.36" x2="32.1501" y2="63.2557" gradientUnits="userSpaceOnUse">
<stop stop-color="#925FE2"/>
<stop offset="1" stop-color="#925FE2"/>
</linearGradient>
<linearGradient id="paint10_linear_36_140" x1="32.1501" y1="56.36" x2="32.1501" y2="63.2557" gradientUnits="userSpaceOnUse">
<stop stop-color="#925FE2"/>
<stop offset="1" stop-color="#DFE7F5"/>
</linearGradient>
<linearGradient id="paint11_linear_36_140" x1="32.1502" y1="53.8676" x2="32.1502" y2="58.6044" gradientUnits="userSpaceOnUse">
<stop stop-color="#925FE2"/>
<stop offset="1" stop-color="#925FE2"/>
</linearGradient>
<linearGradient id="paint12_linear_36_140" x1="61.4735" y1="48.8827" x2="73.9249" y2="63.2125" gradientUnits="userSpaceOnUse">
<stop stop-color="#925FE2"/>
<stop offset="1" stop-color="#E2D4F7"/>
</linearGradient>
<linearGradient id="paint13_linear_36_140" x1="61.4735" y1="48.8827" x2="61.4735" y2="55.7784" gradientUnits="userSpaceOnUse">
<stop stop-color="#925FE2"/>
<stop offset="1" stop-color="#DFE7F5"/>
</linearGradient>
<linearGradient id="paint14_linear_36_140" x1="61.4735" y1="46.3901" x2="69.0763" y2="59.1277" gradientUnits="userSpaceOnUse">
<stop stop-color="#925FE2"/>
<stop offset="1" stop-color="#E2D4F7"/>
</linearGradient>
<linearGradient id="paint15_linear_36_140" x1="61.4735" y1="41.4277" x2="72.0397" y2="56.3883" gradientUnits="userSpaceOnUse">
<stop stop-color="#925FE2"/>
<stop offset="1" stop-color="#E2D4F7"/>
</linearGradient>
<linearGradient id="paint16_linear_36_140" x1="61.4735" y1="41.4277" x2="61.4735" y2="48.3235" gradientUnits="userSpaceOnUse">
<stop stop-color="#925FE2"/>
<stop offset="1" stop-color="#DFE7F5"/>
</linearGradient>
<linearGradient id="paint17_linear_36_140" x1="61.4735" y1="38.9353" x2="67.5226" y2="51.4035" gradientUnits="userSpaceOnUse">
<stop stop-color="#925FE2"/>
<stop offset="1" stop-color="#E2D4F7"/>
</linearGradient>
<linearGradient id="paint18_linear_36_140" x1="9.30023" y1="21.755" x2="73.7944" y2="48.6094" gradientUnits="userSpaceOnUse">
<stop stop-color="#925FE2"/>
<stop offset="1" stop-color="#E2D4F7"/>
</linearGradient>
<linearGradient id="paint19_linear_36_140" x1="9.97675" y1="22.5442" x2="52.3718" y2="35.0598" gradientUnits="userSpaceOnUse">
<stop stop-color="#925FE2"/>
<stop offset="1" stop-color="#E8EFFD"/>
</linearGradient>
<linearGradient id="paint20_linear_36_140" x1="47.4108" y1="27.8245" x2="47.4108" y2="31.2071" gradientUnits="userSpaceOnUse">
<stop offset="0.15625" stop-color="#925FE2"/>
<stop offset="1" stop-color="#F1F1F1"/>
</linearGradient>
<linearGradient id="paint21_linear_36_140" x1="14.0357" y1="25.1184" x2="14.0357" y2="28.501" gradientUnits="userSpaceOnUse">
<stop offset="0.182292" stop-color="#925FE2"/>
<stop offset="1" stop-color="#F1F1F1"/>
</linearGradient>
<linearGradient id="paint22_linear_36_140" x1="30.7234" y1="20.6083" x2="30.7234" y2="35.7172" gradientUnits="userSpaceOnUse">
<stop stop-color="#E4EBF7" stop-opacity="0.5"/>
<stop offset="1" stop-color="#D9E4F4"/>
</linearGradient>
<linearGradient id="paint23_linear_36_140" x1="30.6956" y1="23.0889" x2="30.6956" y2="33.4621" gradientUnits="userSpaceOnUse">
<stop stop-color="#925FE2"/>
<stop offset="1" stop-color="#925FE2"/>
</linearGradient>
<linearGradient id="paint24_linear_36_140" x1="32.4145" y1="21.9614" x2="32.4145" y2="26.0205" gradientUnits="userSpaceOnUse">
<stop stop-color="#925FE2"/>
<stop offset="1" stop-color="#925FE2"/>
</linearGradient>
<linearGradient id="paint25_linear_36_140" x1="29.032" y1="30.5306" x2="29.032" y2="34.5897" gradientUnits="userSpaceOnUse">
<stop stop-color="#925FE2"/>
<stop offset="1" stop-color="#925FE2"/>
</linearGradient>
</defs>
</svg>
