<svg width="16" height="17" viewBox="0 0 16 17" fill="none" xmlns="http://www.w3.org/2000/svg">
<path fill-rule="evenodd" clip-rule="evenodd" d="M9.12201 15.0606H3.2597C2.74144 15.0606 2.24441 14.8547 1.87795 14.4882C1.51148 14.1218 1.3056 13.6247 1.3056 13.1065V3.98734C1.3056 3.46908 1.51148 2.97204 1.87795 2.60558C2.24441 2.23911 2.74144 2.03323 3.2597 2.03323H13.0302C13.5485 2.03323 14.0455 2.23911 14.412 2.60558C14.7784 2.97204 14.9843 3.46908 14.9843 3.98734V13.1065C14.9843 13.6247 14.7784 14.1218 14.412 14.4882C14.0455 14.8547 13.5485 15.0606 13.0302 15.0606H9.12201ZM3.37044 13.7578C3.29879 13.554 3.2597 13.3345 3.2597 13.1065V3.98734C3.2597 3.75936 3.29879 3.53985 3.37044 3.33597H3.2597C3.08695 3.33597 2.92127 3.40459 2.79912 3.52675C2.67696 3.6489 2.60834 3.81458 2.60834 3.98734V13.1065C2.60834 13.2792 2.67696 13.4449 2.79912 13.5671C2.92127 13.6892 3.08695 13.7578 3.2597 13.7578H3.37044ZM5.86517 5.95121C5.865 5.86567 5.88168 5.78093 5.91426 5.70184C5.94683 5.62275 5.99467 5.55085 6.05503 5.49024C6.1154 5.42963 6.18711 5.38151 6.26607 5.34862C6.34503 5.31573 6.4297 5.29871 6.51524 5.29854L11.7262 5.29007C11.8989 5.28972 12.0647 5.35802 12.1871 5.47993C12.3095 5.60184 12.3785 5.76738 12.3788 5.94013C12.3792 6.11289 12.3109 6.2787 12.189 6.4011C12.0671 6.5235 11.9015 6.59246 11.7288 6.5928L6.51784 6.60127C6.4323 6.60144 6.34757 6.58476 6.26848 6.55219C6.18938 6.51961 6.11748 6.47178 6.05688 6.41141C5.99627 6.35105 5.94815 6.27934 5.91525 6.20038C5.88236 6.12141 5.86534 6.03675 5.86517 5.95121ZM5.86517 8.56449C5.865 8.39185 5.93337 8.2262 6.05526 8.10395C6.17716 7.98169 6.3426 7.91282 6.51524 7.91247L11.7262 7.90401C11.8989 7.90366 12.0647 7.97195 12.1871 8.09387C12.3095 8.21578 12.3785 8.38132 12.3788 8.55407C12.3792 8.72682 12.3109 8.89264 12.189 9.01504C12.0671 9.13744 11.9015 9.20639 11.7288 9.20674L6.51784 9.21521C6.4323 9.21538 6.34757 9.1987 6.26848 9.16612C6.18938 9.13355 6.11748 9.08571 6.05688 9.02535C5.99627 8.96498 5.94815 8.89327 5.91525 8.81431C5.88236 8.73535 5.86534 8.65003 5.86517 8.56449ZM5.86517 11.17C5.865 10.9973 5.93337 10.8317 6.05526 10.7094C6.17716 10.5872 6.3426 10.5183 6.51524 10.5179L11.7262 10.5095C11.8989 10.5091 12.0647 10.5774 12.1871 10.6993C12.3095 10.8212 12.3785 10.9868 12.3788 11.1595C12.3792 11.3323 12.3109 11.4981 12.189 11.6205C12.0671 11.7429 11.9015 11.8119 11.7288 11.8122L6.51784 11.8207C6.4323 11.8208 6.34757 11.8042 6.26848 11.7716C6.18938 11.739 6.11748 11.6912 6.05688 11.6308C5.99627 11.5705 5.94815 11.4987 5.91525 11.4198C5.88236 11.3408 5.86534 11.2555 5.86517 11.17Z" fill="white" fill-opacity="0.5"/>
</svg>
