<svg width="16" height="17" viewBox="0 0 16 17" fill="none" xmlns="http://www.w3.org/2000/svg">
<path fill-rule="evenodd" clip-rule="evenodd" d="M13.5344 5.74092C14.5831 4.68831 14.5381 3.30611 13.7552 2.45934C13.5582 2.2463 13.3202 2.07523 13.0555 1.95637C12.7908 1.8375 12.5048 1.77329 12.2147 1.76758C11.5966 1.75325 10.9569 1.98905 10.3661 2.48344C10.351 2.49601 10.3364 2.50926 10.3225 2.52317L1.8749 11.0046C1.50992 11.3712 1.3052 11.8676 1.3056 12.3849V13.4876C1.3056 14.2048 1.88662 14.7949 2.61094 14.7949H3.70459C3.9618 14.7949 4.21648 14.744 4.45401 14.6453C4.69153 14.5466 4.90724 14.402 5.08874 14.2198L13.5344 5.74092ZM11.2109 4.23822C11.1509 4.17601 11.079 4.12638 10.9995 4.09225C10.92 4.05811 10.8346 4.04014 10.7481 4.03939C10.6616 4.03864 10.5758 4.05512 10.4958 4.08787C10.4157 4.12062 10.343 4.16899 10.2818 4.23014C10.2207 4.2913 10.1723 4.36403 10.1396 4.44408C10.1068 4.52413 10.0903 4.6099 10.0911 4.69639C10.0918 4.78288 10.1098 4.86835 10.1439 4.94782C10.1781 5.02729 10.2277 5.09917 10.2899 5.15925L10.9413 5.81062C11.0014 5.87283 11.0732 5.92245 11.1527 5.95659C11.2322 5.99073 11.3177 6.0087 11.4041 6.00945C11.4906 6.0102 11.5764 5.99372 11.6564 5.96097C11.7365 5.92822 11.8092 5.87985 11.8704 5.81869C11.9315 5.75753 11.9799 5.68481 12.0127 5.60476C12.0454 5.52471 12.0619 5.43893 12.0611 5.35245C12.0604 5.26596 12.0424 5.18049 12.0083 5.10102C11.9741 5.02155 11.9245 4.94967 11.8623 4.88959L11.2109 4.23822Z" fill="white" fill-opacity="0.5"/>
</svg>
