<svg width="1584" height="581" viewBox="0 0 1584 581" fill="none" xmlns="http://www.w3.org/2000/svg">
<path d="M72 26.6631C108.109 52.6252 214.25 43.2112 365.094 43.2112C515.938 43.2112 522.996 108.038 696.547 108.038C870.098 108.038 872.25 61.8812 1036.41 61.8812C1200.56 61.8812 1301.94 108.038 1371.96 108.038C1441.98 108.038 1502.12 66.6915 1512 60.0381C1512 165.064 1512 446.325 1512 549.01C1449.01 526.137 1420.91 501.01 1248.66 501.01C1076.41 501.01 1067.86 560.196 907 560.196C746.145 560.196 757.762 501.01 582.453 501.01C407.145 501.01 116.18 533.657 72 555.389C72 480.085 72 162.006 72 26.6631Z" fill="url(#paint0_linear_0_223)"/>
<path opacity="0.103144" d="M1 11.5802V11.2945C13.0722 4.32371 28.665 1.45769 47.9116 1.15016C67.4148 0.838524 90.5527 3.15344 117.396 6.39074C124.516 7.24946 131.894 8.17277 139.531 9.12839C189.441 15.374 250.384 23.0002 322.403 23.0002C402.278 23.0002 445.38 39.2662 490.099 56.1421C491.725 56.7554 493.352 57.3696 494.983 57.9838C541.594 75.532 591.386 93.0956 687.002 93.0956C782.572 93.0956 830.982 80.5976 878.056 68.1081L880.027 67.5849C926.332 55.2947 971.947 43.1875 1060.85 43.1875C1151.03 43.1875 1210.72 55.6479 1257.5 68.1079C1267.28 70.7146 1276.52 73.3257 1285.35 75.8248C1318.7 85.2573 1346.42 93.0956 1377 93.0956C1415.77 93.0956 1464.99 73.1577 1505.76 52.4242C1543.69 33.1323 1574.47 13.0645 1583 7.43486V7.5933V8.2763V8.96429V9.65724V10.3551V11.058V11.7657V12.4783V13.1958V13.9181V14.6453V15.3772V16.114V16.8555V17.6017V18.3527V19.1084V19.8688V20.6338V21.4035V22.1778V22.9567V23.7403V24.5283V25.321V26.1181V26.9198V27.7259V28.5365V29.3516V30.1711V30.995V31.8233V32.6559V33.4929V34.3343V35.1799V36.0298V36.884V37.7425V38.6052V39.472V40.3431V41.2184V42.0977V42.9813V43.8689V44.7606V45.6564V46.5563V47.4601V48.368V49.2799V50.1957V51.1155V52.0392V52.9669V53.8984V54.8338V55.773V56.7161V57.663V58.6137V59.5681V60.5263V61.4883V62.4539V63.4232V64.3962V65.3729V66.3532V67.3371V68.3246V69.3157V70.3103V71.3084V72.3101V73.3153V74.3239V75.336V76.3515V77.3704V78.3928V79.4185V80.4475V81.4799V82.5156V83.5546V84.5969V85.6424V86.6911V87.7431V88.7983V89.8566V90.9181V91.9827V93.0505V94.1213V95.1952V96.2722V97.3522V98.4352V99.5212V100.61V101.702V102.797V103.895V104.996V106.099V107.206V108.315V109.427V110.542V111.659V112.78V113.903V115.029V116.157V117.289V118.422V119.559V120.698V121.84V122.984V124.131V125.28V126.432V127.587V128.744V129.903V131.065V132.229V133.396V134.565V135.736V136.91V138.086V139.264V140.445V141.628V142.813V144V145.189V146.381V147.575V148.771V149.969V151.169V152.372V153.576V154.782V155.991V157.201V158.414V159.628V160.844V162.062V163.283V164.505V165.728V166.954V168.182V169.411V170.642V171.875V173.11V174.346V175.584V176.824V178.065V179.308V180.553V181.799V183.047V184.296V185.547V186.8V188.053V189.309V190.566V191.824V193.084V194.345V195.608V196.872V198.137V199.403V200.671V201.941V203.211V204.483V205.756V207.03V208.305V209.581V210.859V212.138V213.418V214.699V215.981V217.264V218.548V219.833V221.119V222.406V223.694V224.983V226.272V227.563V228.855V230.147V231.44V232.734V234.029V235.325V236.621V237.918V239.216V240.514V241.813V243.113V244.414V245.715V247.016V248.318V249.621V250.924V252.228V253.532V254.837V256.142V257.448V258.754V260.06V261.367V262.674V263.981V265.289V266.597V267.905V269.214V270.523V271.832V273.141V274.45V275.76V277.069V278.379V279.689V280.999V282.309V283.619V284.929V286.239V287.549V288.858V290.168V291.478V292.788V294.097V295.407V296.716V298.025V299.334V300.642V301.95V303.258V304.566V305.874V307.181V308.488V309.794V311.1V312.406V313.711V315.016V316.32V317.624V318.927V320.23V321.532V322.833V324.135V325.435V326.735V328.034V329.333V330.63V331.927V333.224V334.52V335.814V337.108V338.402V339.694V340.986V342.277V343.567V344.855V346.144V347.431V348.717V350.002V351.286V352.569V353.851V355.132V356.412V357.691V358.969V360.245V361.521V362.795V364.068V365.34V366.61V367.88V369.148V370.414V371.68V372.944V374.207V375.468V376.728V377.986V379.243V380.499V381.753V383.005V384.257V385.506V386.754V388V389.245V390.488V391.73V392.97V394.208V395.444V396.679V397.912V399.143V400.373V401.601V402.826V404.05V405.273V406.493V407.711V408.928V410.142V411.355V412.565V413.774V414.981V416.185V417.388V418.588V419.786V420.982V422.177V423.368V424.558V425.746V426.931V428.114V429.295V430.473V431.649V432.823V433.995V435.164V436.331V437.495V438.657V439.817V440.974V442.129V443.281V444.431V445.578V446.722V447.864V449.004V450.14V451.274V452.406V453.535V454.661V455.784V456.905V458.023V459.138V460.25V461.36V462.466V463.57V464.671V465.769V466.864V467.957V469.046V470.132V471.215V472.296V473.373V474.447V475.518V476.586V477.651V478.713V479.771V480.827V481.879V482.928V483.974V485.017V486.056V487.092V488.124V489.154V490.18V491.202V492.222V493.238V494.25V495.259V496.264V497.266V498.265V499.26V500.251V501.239V502.223V503.204V504.181V505.154V506.124V507.09V508.052V509.01V509.965V510.916V511.863V512.807V513.746V514.682V515.614V516.542V517.466V518.386V519.302V520.215V521.123V522.027V522.927V523.823V524.716V525.604V526.487V527.367V528.243V529.114V529.982V530.845V531.703V532.558V533.408V534.254V535.096V535.933V536.766V537.595V538.419V539.239V540.055V540.866V541.672V542.474V543.272V544.065V544.853V545.637V546.417V547.191V547.961V548.727V549.488V550.244V550.995V551.742V552.484V553.221V553.953V554.681V555.404V556.122V556.835V557.543V558.246V558.944V559.638V560.326V561.01V561.688V562.361V563.03V563.693V564.351V564.441C1566.08 574.64 1551.53 576.808 1536.31 574.351C1521.82 572.012 1506.71 565.483 1488.32 557.532C1487.1 557.007 1485.87 556.475 1484.63 555.939C1444.5 538.628 1389.26 516.005 1294.33 516.005C1199.44 516.005 1149.61 532.037 1101.4 548.053L1098.92 548.876C1051.67 564.583 1005.3 580 918.5 580C832.111 580 791.081 564.729 749.099 549.103C748.17 548.757 747.24 548.411 746.31 548.065C703.209 532.039 658.072 516.005 561.498 516.005C469.413 516.005 348.378 534.897 241.784 551.536C236.656 552.337 231.561 553.132 226.505 553.919C171.4 562.504 120.841 570.189 81.0243 573.944C61.1149 575.822 43.9212 576.714 30.2041 576.25C16.817 575.797 6.90622 574.055 1 570.802V315.397V314.087V312.777V311.467V310.155V308.843V307.531V306.217V304.903V303.589V302.274V300.958V299.642V298.325V297.008V295.69V294.372V293.054V291.735V290.415V289.096V287.776V286.455V285.135V283.814V282.492V281.171V279.849V278.527V277.205V275.883V274.56V273.238V271.915V270.592V269.269V267.946V266.623V265.3V263.977V262.654V261.331V260.008V258.686V257.363V256.04V254.718V253.395V252.073V250.751V249.43V248.108V246.787V245.466V244.145V242.825V241.505V240.185V238.866V237.547V236.229V234.911V233.593V232.276V230.959V229.643V228.328V227.013V225.698V224.384V223.071V221.758V220.447V219.135V217.825V216.515V215.205V213.897V212.589V211.282V209.976V208.671V207.367V206.063V204.76V203.458V202.158V200.858V199.559V198.261V196.964V195.668V194.373V193.079V191.786V190.494V189.204V187.914V186.626V185.339V184.053V182.768V181.485V180.203V178.922V177.642V176.364V175.087V173.811V172.537V171.264V169.992V168.722V167.454V166.187V164.921V163.657V162.394V161.133V159.874V158.616V157.36V156.105V154.852V153.601V152.351V151.103V149.857V148.612V147.37V146.129V144.889V143.652V142.417V141.183V139.951V138.721V137.494V136.268V135.044V133.822V132.602V131.383V130.168V128.954V127.742V126.532V125.324V124.119V122.916V121.714V120.515V119.319V118.124V116.932V115.742V114.554V113.369V112.186V111.005V109.827V108.651V107.477V106.306V105.137V103.971V102.807V101.646V100.487V99.3314V98.1778V97.0268V95.8784V94.7327V93.5896V92.4491V91.3114V90.1763V89.044V87.9144V86.7876V85.6636V84.5423V83.4239V82.3083V81.1956V80.0858V78.9788V77.8748V76.7737V75.6756V74.5804V73.4883V72.3991V71.313V70.23V69.15V68.0732V66.9994V65.9288V64.8613V63.797V62.7359V61.678V60.6234V59.572V58.5238V57.479V56.4375V55.3992V54.3644V53.3329V52.3048V51.2801V50.2589V49.241V48.2267V47.2158V46.2085V45.2047V44.2044V43.2077V42.2145V41.225V40.2391V39.2568V38.2782V37.3033V36.3321V35.3646V34.4009V33.4409V32.4847V31.5322V30.5837V29.6389V28.698V27.761V26.8279V25.8987V24.9734V24.0521V23.1348V22.2214V21.3121V20.4068V19.5056V18.6085V17.7154V16.8264V15.9416V15.061V14.1845V13.3122V12.4441V11.5802Z" stroke="black" stroke-width="2"/>
<path opacity="0.498628" d="M72.5632 41.3612L71 40.2959V42.1875V67.4994V96.3997V97.3541V98.3113V99.2715V100.234V101.2V102.169V103.14V104.115V105.092V106.071V107.054V108.039V109.027V110.017V111.011V112.007V113.005V114.006V115.01V116.016V117.025V118.036V119.05V120.066V121.085V122.106V123.13V124.156V125.184V126.215V127.248V128.284V129.321V130.362V131.404V132.449V133.496V134.545V135.596V136.65V137.706V138.763V139.823V140.886V141.95V143.016V144.085V145.155V146.228V147.302V148.379V149.457V150.538V151.62V152.704V153.79V154.878V155.968V157.06V158.154V159.249V160.346V161.445V162.546V163.648V164.752V165.858V166.966V168.075V169.186V170.298V171.412V172.528V173.645V174.764V175.884V177.006V178.129V179.254V180.38V181.507V182.637V183.767V184.899V186.032V187.167V188.302V189.44V190.578V191.718V192.859V194.001V195.144V196.289V197.435V198.582V199.73V200.879V202.029V203.181V204.333V205.487V206.641V207.797V208.953V210.111V211.269V212.429V213.589V214.75V215.913V217.076V218.239V219.404V220.57V221.736V222.903V224.071V225.239V226.408V227.578V228.749V229.92V231.092V232.265V233.438V234.612V235.786V236.961V238.136V239.312V240.489V241.665V242.843V244.021V245.199V246.377V247.556V248.736V249.915V251.095V252.276V253.456V254.637V255.818V257V258.181V259.363V260.545V261.727V262.91V264.092V265.275V266.457V267.64V268.823V270.005V271.188V272.371V273.554V274.737V275.919V277.102V278.284V279.467V280.649V281.831V283.013V284.195V285.376V286.558V287.739V288.919V290.1V291.28V292.46V293.64V294.819V295.998V297.176V298.354V299.532V300.709V301.886V303.062V304.238V305.413V306.587V307.761V308.935V310.108V311.28V312.452V313.623V314.793V315.963V317.132V318.3V319.468V320.634V321.8V322.966V324.13V325.293V329.939V331.098V332.256V333.413V334.569V335.725V336.879V338.032V339.184V340.335V341.485V342.634V343.781V344.928V346.073V347.217V348.36V349.502V350.642V351.782V352.92V354.056V355.192V356.326V357.458V358.59V359.719V360.848V361.975V363.101V364.225V365.347V366.469V367.588V368.706V369.823V370.938V372.051V373.163V374.273V375.382V376.489V377.594V378.697V379.799V380.899V381.997V383.094V384.189V385.282V386.373V387.462V388.549V389.635V390.718V391.8V392.879V393.957V395.033V396.107V397.178V398.248V399.316V400.381V401.445V402.506V403.565V404.622V405.677V406.73V407.78V408.829V409.875V410.919V411.96V412.999V414.036V415.071V416.103V417.133V418.161V419.186V420.209V421.229V422.247V423.262V424.275V425.285V426.293V427.298V428.301V429.301V430.298V431.293V432.285V433.275V434.262V435.246V436.227V437.206V438.182V439.155V440.125V441.093V442.058V443.019V443.978V444.935V445.888V446.838V447.786V448.73V449.671V450.61V451.545V452.478V453.407V454.333V455.257V456.177V457.094V458.007V458.918V459.826V460.73V461.631V462.529V463.423V464.315V465.203V466.087V466.969V467.847V468.721V469.593V470.461V471.325V472.186V473.044V473.898V474.749V475.596V476.439V477.279V478.116V478.949V479.778V480.603V481.425V482.244V483.059V483.869V484.677V485.48V486.28V487.076V487.868V488.657V489.441V490.222V490.999V491.772V492.541V493.306V494.067V494.825V495.578V496.327V497.073V497.814V498.551V499.284V500.013V500.738V501.459V502.176V502.889V503.597V504.301V505.001V505.697V506.388V507.076V507.759V508.437V509.112V509.782V510.447V511.108V511.765V512.418V513.066V513.709V514.348V514.983V515.613V516.238V516.859V517.476V518.088V518.695V519.298V519.896V520.489V521.078V521.661V522.241V522.815V523.385V523.95V524.51V525.066V525.616V526.162V526.703V527.239V527.77V528.296V528.818V529.334V529.845V530.352V530.853V531.349V531.841V532.327V532.808V533.284V533.755V534.221V534.681V535.137V535.587V536.032V536.472V536.907V537.336V537.76V538.179V538.592V539V540.736L72.5017 539.865C77.8971 536.736 87.1604 533.512 99.6778 530.276C112.169 527.047 127.815 523.827 145.915 520.68C182.114 514.386 228.081 508.392 278.156 503.197C378.309 492.808 494.842 485.621 582.453 485.621C669.963 485.621 710.772 499.185 749.818 512.755C750.655 513.046 751.49 513.337 752.326 513.627C790.602 526.943 828.134 540 907 540C986.203 540 1028.58 526.832 1071.62 513.462L1073.86 512.766C1117.58 499.186 1162.68 485.621 1248.66 485.621C1334.72 485.621 1384.72 493.711 1421.04 503.729C1438.68 508.595 1453.11 513.92 1466.92 519.016L1468.16 519.471C1482.34 524.702 1495.95 529.673 1511.76 533.592L1513 533.899V532.621V532.066V531.508V530.945V530.378V529.808V529.234V528.656V528.074V527.488V526.899V526.306V525.708V525.108V524.503V523.895V523.283V522.667V522.048V521.425V520.798V520.168V519.534V518.897V518.256V517.611V516.963V516.311V515.656V514.997V514.335V513.67V513V512.328V511.652V510.972V510.29V509.603V508.914V508.221V507.525V506.825V506.122V505.416V504.706V503.994V503.278V502.558V501.836V501.11V500.382V499.65V498.914V498.176V497.435V496.69V495.943V495.192V494.438V493.681V492.921V492.159V491.393V490.624V489.852V489.077V488.3V487.519V486.735V485.949V485.16V484.367V483.572V482.775V481.974V481.17V480.364V479.555V478.743V477.929V477.111V476.291V475.469V474.643V473.815V472.984V472.151V471.315V470.477V469.635V468.792V467.945V467.097V466.245V465.391V464.535V463.676V462.815V461.951V461.085V460.216V459.345V458.472V457.596V456.718V455.837V454.954V454.069V453.182V452.292V451.4V450.506V449.609V448.711V447.81V446.907V446.001V445.094V444.184V443.272V442.359V441.443V440.525V439.604V438.682V437.758V436.832V435.904V434.973V434.041V433.107V432.171V431.233V430.293V429.351V428.407V427.461V426.514V425.564V424.613V423.66V422.706V421.749V420.791V419.831V418.869V417.905V416.94V415.973V415.004V414.034V413.062V412.089V411.114V410.137V409.159V408.179V407.197V406.214V405.23V404.244V403.256V402.267V401.277V400.285V399.292V398.297V397.301V396.303V395.304V394.304V393.303V392.3V391.295V390.29V389.283V388.275V387.266V386.255V385.244V384.231V383.217V382.201V381.185V380.167V379.149V378.129V377.108V376.086V375.063V374.039V373.014V371.988V370.961V369.932V368.903V367.873V366.842V365.81V364.778V363.744V362.709V361.674V360.638V359.6V358.562V357.524V356.484V355.444V354.403V353.361V352.318V351.275V350.231V349.186V348.141V347.095V346.048V345.001V343.953V342.905V341.856V340.807V339.756V338.706V337.655V336.603V335.551V334.498V333.445V332.392V331.338V330.284V329.229V328.174V327.118V326.063V325.007V323.95V322.893V321.836V320.779V319.722V318.664V317.606V316.548V315.489V314.431V313.372V312.313V311.254V310.195V309.136V308.077V307.017V305.958V304.898V303.839V302.779V301.72V300.66V299.601V298.542V297.482V296.423V295.364V294.305V293.246V292.187V291.129V290.07V289.012V287.954V286.896V285.838V284.781V283.724V282.667V281.611V280.555V279.499V278.443V277.388V276.333V275.279V274.225V273.171V272.118V271.066V270.013V268.962V267.91V266.86V265.809V264.76V263.711V262.662V261.614V260.567V259.52V258.474V257.429V256.384V255.34V254.296V253.253V252.211V251.17V250.13V249.09V248.051V247.013V245.976V244.939V243.903V242.869V241.835V240.802V239.77V238.738V237.708V236.679V235.65V234.623V233.597V232.571V231.547V230.524V229.502V228.48V227.46V226.441V225.424V224.407V223.391V222.377V221.364V220.352V219.341V218.332V217.323V216.316V215.31V214.306V213.303V212.301V211.3V210.301V209.303V208.307V207.312V206.318V205.326V204.335V203.346V202.358V201.372V200.387V199.404V198.422V197.442V196.463V195.486V194.51V193.537V192.564V191.594V190.625V189.657V188.692V187.728V186.766V185.805V184.846V183.889V182.934V181.981V181.029V180.079V179.132V178.186V177.241V176.299V175.359V174.42V173.483V172.549V171.616V170.686V169.757V168.83V167.905V166.983V166.062V165.144V164.227V163.313V162.401V161.491V160.583V159.677V158.773V157.872V156.973V156.076V155.181V154.288V153.398V152.51V151.624V150.741V149.86V148.981V148.105V147.231V146.359V145.49V144.624V143.759V142.897V142.038V141.181V140.327V139.475V138.625V137.778V136.934V136.092V135.253V134.417V133.583V132.752V131.923V131.097V130.274V129.453V128.635V127.82V127.008V126.198V125.391V124.587V123.785V122.987V122.191V121.398V120.608V119.821V119.037V118.256V117.478V116.702V115.93V115.16V114.394V113.63V112.87V112.112V111.358V110.606V109.858V109.113V108.371V107.632V106.896V106.163V105.434V104.707V103.984V103.264V102.547V101.834V101.124V100.417V99.7131V99.0128V98.3157V97.622V96.9317V96.2447V95.5611V94.8809V94.2042V93.5308V92.8609V92.1944V91.5314V90.8719V90.2159V89.5634V88.9145V88.2691V87.6273V86.989V86.3543V85.7233V85.0959V84.4721V83.852V83.2355V82.6227V82.0136V81.4083V80.8067V80.2088V79.6147V79.0243V78.4378V77.8551V77.2761V76.7011V76.1298V75.5625V73.7681L1511.47 74.712C1510.8 75.1274 1509.9 75.7049 1508.79 76.4209C1493.4 86.3039 1436.94 122.562 1371.96 122.562C1344.41 122.562 1311.98 115.971 1272.61 107.967C1262.14 105.838 1251.17 103.608 1239.68 101.377C1185.03 90.7684 1118.57 80.154 1036.41 80.154C955.348 80.154 913.705 90.4851 871.534 100.947L869.759 101.388C827.052 111.979 783.212 122.562 696.547 122.562C609.923 122.562 564.889 107.707 522.637 92.838C521.155 92.3164 519.676 91.7948 518.199 91.2737C477.479 76.9105 438.044 63.0002 365.094 63.0002C335.455 63.0002 307.9 63.3399 282.409 63.6541C242.983 64.1402 208.493 64.5654 178.865 63.5788C130.048 61.9532 94.7646 56.4915 72.5632 41.3612Z" stroke="white" stroke-width="2"/>
<defs>
<linearGradient id="paint0_linear_0_223" x1="72" y1="26.6631" x2="72" y2="560.196" gradientUnits="userSpaceOnUse">
<stop stop-color="#A6D8BE"/>
<stop offset="1" stop-color="#FCEFBA"/>
</linearGradient>
</defs>
</svg>
